<?xml version="1.0" encoding="utf-8"?>
<svg xmlns="http://www.w3.org/2000/svg" width="4000" height="4000" viewBox="1350 850 1450 2500" fill="#c4a882">
  <defs>
    <clipPath id="clip-0">
      <path clip-rule="nonzero" d="M 1799 3204 L 2187 3204 L 2187 3246 L 1799 3246 Z M 1799 3204 "/>
    </clipPath>
    <clipPath id="clip-1">
      <path clip-rule="nonzero" d="M 1993.058594 3245.019531 C 1886.230469 3245.019531 1799.628906 3236.050781 1799.628906 3225 C 1799.628906 3213.949219 1886.230469 3204.980469 1993.058594 3204.980469 C 2099.878906 3204.980469 2186.480469 3213.949219 2186.480469 3225 C 2186.480469 3236.050781 2099.878906 3245.019531 1993.058594 3245.019531 "/>
    </clipPath>
    <clipPath id="clip-2">
      <path clip-rule="nonzero" d="M 1993.058594 3245.019531 C 1886.230469 3245.019531 1799.628906 3236.050781 1799.628906 3225 C 1799.628906 3213.949219 1886.230469 3204.980469 1993.058594 3204.980469 C 2099.878906 3204.980469 2186.480469 3213.949219 2186.480469 3225 C 2186.480469 3236.050781 2099.878906 3245.019531 1993.058594 3245.019531 "/>
    </clipPath>
  </defs>

  <g clip-path="url(#clip-0)">
    <g clip-path="url(#clip-1)">
      <g clip-path="url(#clip-2)"/>
    </g>
  </g>
  <path fill-rule="nonzero"  d="M 1935.679688 1868.191406 C 1896.328125 1848.199219 1860.011719 1824.628906 1831.859375 1790.03125 C 1793.851562 1743.308594 1776.53125 1690.179688 1787.371094 1630.339844 C 1790.988281 1610.351562 1800.960938 1591.488281 1808.191406 1572.171875 C 1810.039062 1567.238281 1813.488281 1562.730469 1814.5 1557.691406 C 1817.910156 1540.589844 1826.019531 1522.101562 1822.429688 1506.390625 C 1813.648438 1467.878906 1793.46875 1434.398438 1761.050781 1409.859375 C 1732.878906 1388.53125 1701.371094 1380.238281 1666.199219 1385.101562 C 1639.441406 1388.789062 1628.578125 1397.949219 1625.039062 1424.320312 C 1622.320312 1444.558594 1612.898438 1461.53125 1598.410156 1474.171875 C 1537.101562 1527.640625 1543.941406 1641.53125 1583.640625 1701.039062 C 1614.921875 1747.921875 1657.511719 1780.539062 1707.859375 1802.679688 C 1777.660156 1833.378906 1851.601562 1851.339844 1925.910156 1867.460938 C 1929.070312 1868.148438 1932.421875 1867.96875 1935.679688 1868.191406 "/>
  <path fill-rule="nonzero"  d="M 1935.679688 1868.191406 L 1935.910156 1867.75 C 1896.578125 1847.769531 1860.328125 1824.238281 1832.238281 1789.710938 C 1801.800781 1752.289062 1784.679688 1710.808594 1784.679688 1665.039062 C 1784.679688 1653.769531 1785.71875 1642.230469 1787.859375 1630.429688 C 1791.460938 1610.539062 1801.410156 1591.710938 1808.660156 1572.351562 C 1810.460938 1567.511719 1813.929688 1562.988281 1814.988281 1557.78125 C 1817.789062 1543.730469 1823.820312 1528.660156 1823.828125 1514.851562 C 1823.828125 1511.929688 1823.558594 1509.070312 1822.921875 1506.28125 C 1814.109375 1467.671875 1793.871094 1434.070312 1761.359375 1409.460938 C 1738.320312 1392.011719 1713.019531 1383.25 1685.339844 1383.25 C 1679.058594 1383.25 1672.660156 1383.699219 1666.128906 1384.601562 C 1652.710938 1386.460938 1643.191406 1389.679688 1636.570312 1395.839844 C 1629.949219 1402 1626.320312 1411.019531 1624.539062 1424.261719 C 1621.839844 1444.378906 1612.480469 1461.230469 1598.078125 1473.789062 C 1566.070312 1501.71875 1552.589844 1545.980469 1552.589844 1590.390625 C 1552.589844 1631.441406 1564.089844 1672.628906 1583.21875 1701.320312 C 1614.558594 1748.28125 1657.238281 1780.96875 1707.660156 1803.140625 C 1777.511719 1833.859375 1851.488281 1851.820312 1925.808594 1867.949219 C 1929.058594 1868.660156 1932.429688 1868.46875 1935.648438 1868.691406 L 1938.101562 1868.859375 L 1935.910156 1867.75 L 1935.679688 1868.191406 L 1935.710938 1867.691406 C 1932.410156 1867.46875 1929.089844 1867.640625 1926.019531 1866.980469 C 1851.710938 1850.851562 1777.800781 1832.898438 1708.058594 1802.230469 C 1657.78125 1780.109375 1615.28125 1747.550781 1584.058594 1700.761719 C 1565.058594 1672.289062 1553.578125 1631.25 1553.589844 1590.390625 C 1553.589844 1546.171875 1567.019531 1502.199219 1598.730469 1474.550781 C 1613.308594 1461.828125 1622.800781 1444.75 1625.539062 1424.390625 C 1627.300781 1411.25 1630.871094 1402.511719 1637.25 1396.570312 C 1643.640625 1390.628906 1652.929688 1387.441406 1666.269531 1385.589844 C 1672.75 1384.699219 1679.109375 1384.25 1685.339844 1384.25 C 1712.800781 1384.25 1737.859375 1392.929688 1760.75 1410.261719 C 1793.070312 1434.730469 1813.179688 1468.089844 1821.949219 1506.5 C 1822.558594 1509.199219 1822.828125 1511.988281 1822.828125 1514.851562 C 1822.839844 1528.371094 1816.839844 1543.421875 1814.011719 1557.589844 C 1813.039062 1562.480469 1809.621094 1566.96875 1807.71875 1572 C 1800.511719 1591.28125 1790.519531 1610.148438 1786.878906 1630.25 C 1784.730469 1642.109375 1783.679688 1653.710938 1783.679688 1665.039062 C 1783.679688 1711.058594 1800.921875 1752.789062 1831.46875 1790.339844 C 1859.691406 1825.03125 1896.070312 1848.640625 1935.449219 1868.640625 L 1935.679688 1868.191406 L 1935.710938 1867.691406 L 1935.679688 1868.191406 "/>
  <path fill-rule="nonzero"  d="M 1894.269531 1290.628906 C 1895.410156 1308.089844 1894.539062 1323 1897.820312 1336.941406 C 1901.109375 1350.890625 1908.550781 1363.851562 1915.550781 1380.558594 C 1935.179688 1357 1946.46875 1334.878906 1942.03125 1308.820312 C 1933.898438 1261.140625 1949.449219 1224.269531 1987.390625 1195.339844 C 2001.78125 1184.359375 2015.851562 1172.640625 2028.359375 1159.628906 C 2036.5 1151.148438 2033.480469 1139.859375 2023.53125 1137.648438 C 1975.058594 1126.898438 1926.128906 1117.828125 1876.5 1127.898438 C 1820.410156 1139.269531 1798.78125 1165.980469 1792.898438 1227.570312 C 1785.378906 1306.261719 1797.148438 1381.730469 1831.089844 1453.429688 C 1850.128906 1493.648438 1874.21875 1530.679688 1903.699219 1563.898438 C 1937.03125 1601.429688 1966.960938 1641.28125 1991.679688 1684.96875 C 2004.96875 1708.449219 2023.078125 1726.070312 2049.480469 1734.058594 C 2064.191406 1738.511719 2079.578125 1741.550781 2093.390625 1747.949219 C 2106.820312 1754.179688 2118.628906 1763.898438 2134.078125 1770.519531 C 2127.949219 1761.601562 2123.648438 1750.078125 2115.359375 1744.210938 C 2083.179688 1721.441406 2071.628906 1687.769531 2064.089844 1652.121094 C 2053.210938 1600.640625 2034.808594 1552.578125 2003.539062 1509.988281 C 1979.941406 1477.851562 1956.050781 1445.921875 1931.75 1414.308594 C 1911.179688 1387.539062 1889.839844 1361.261719 1885.550781 1326.140625 C 1884.128906 1314.449219 1884.710938 1302.75 1894.269531 1290.628906 "/>
  <path fill-rule="nonzero"  d="M 1894.269531 1290.628906 L 1893.769531 1290.660156 C 1894.921875 1308.078125 1894.03125 1323.019531 1897.339844 1337.058594 C 1900.648438 1351.101562 1908.101562 1364.078125 1915.089844 1380.75 L 1915.410156 1381.511719 L 1915.941406 1380.878906 C 1932.730469 1360.730469 1943.488281 1341.550781 1943.488281 1320.011719 C 1943.488281 1316.328125 1943.179688 1312.578125 1942.519531 1308.738281 C 1941.121094 1300.539062 1940.429688 1292.671875 1940.429688 1285.101562 C 1940.441406 1248.808594 1956.390625 1219.621094 1987.691406 1195.730469 C 2002.101562 1184.75 2016.179688 1173.019531 2028.71875 1159.96875 C 2032.011719 1156.550781 2033.539062 1152.648438 2033.539062 1149.019531 C 2033.539062 1146.230469 2032.628906 1143.609375 2030.941406 1141.511719 C 2029.238281 1139.410156 2026.75 1137.851562 2023.640625 1137.160156 C 1989.980469 1129.691406 1956.058594 1123.03125 1921.820312 1123.03125 C 1906.738281 1123.03125 1891.601562 1124.320312 1876.398438 1127.398438 C 1848.300781 1133.101562 1828.738281 1142.671875 1815.480469 1158.578125 C 1802.230469 1174.488281 1795.339844 1196.679688 1792.398438 1227.519531 C 1790.949219 1242.648438 1790.21875 1257.660156 1790.21875 1272.550781 C 1790.21875 1335.179688 1803.179688 1395.648438 1830.640625 1453.640625 C 1849.699219 1493.898438 1873.808594 1530.980469 1903.328125 1564.230469 C 1936.640625 1601.738281 1966.539062 1641.558594 1991.25 1685.210938 C 2004.570312 1708.769531 2022.800781 1726.511719 2049.328125 1734.539062 C 2064.078125 1739 2079.441406 1742.03125 2093.179688 1748.410156 C 2106.53125 1754.589844 2118.359375 1764.320312 2133.878906 1770.980469 L 2135.46875 1771.671875 L 2134.488281 1770.238281 C 2131.449219 1765.820312 2128.851562 1760.710938 2125.960938 1755.960938 C 2123.070312 1751.210938 2119.890625 1746.800781 2115.648438 1743.800781 C 2099.628906 1732.46875 2088.761719 1718.429688 2080.929688 1702.769531 C 2073.109375 1687.109375 2068.351562 1669.820312 2064.578125 1652.019531 C 2053.691406 1600.488281 2035.261719 1552.359375 2003.941406 1509.699219 C 1980.339844 1477.558594 1956.449219 1445.621094 1932.148438 1414.011719 C 1911.558594 1387.21875 1890.308594 1361.019531 1886.050781 1326.078125 C 1885.699219 1323.191406 1885.46875 1320.308594 1885.46875 1317.429688 C 1885.46875 1308.699219 1887.550781 1299.96875 1894.660156 1290.941406 L 1894.269531 1290.628906 L 1893.769531 1290.660156 L 1894.269531 1290.628906 L 1893.878906 1290.320312 C 1886.621094 1299.519531 1884.460938 1308.539062 1884.46875 1317.429688 C 1884.46875 1320.371094 1884.699219 1323.289062 1885.058594 1326.199219 C 1889.371094 1361.5 1910.789062 1387.851562 1931.359375 1414.621094 C 1955.648438 1446.230469 1979.539062 1478.148438 2003.140625 1510.289062 C 2034.351562 1552.808594 2052.730469 1600.789062 2063.601562 1652.230469 C 2067.378906 1670.070312 2072.160156 1687.441406 2080.039062 1703.21875 C 2087.921875 1719 2098.910156 1733.179688 2115.070312 1744.621094 C 2119.121094 1747.480469 2122.238281 1751.769531 2125.101562 1756.480469 C 2127.96875 1761.191406 2130.578125 1766.308594 2133.671875 1770.808594 L 2134.078125 1770.519531 L 2134.28125 1770.070312 C 2118.910156 1763.480469 2107.109375 1753.769531 2093.601562 1747.5 C 2079.710938 1741.058594 2064.300781 1738.03125 2049.621094 1733.578125 C 2023.371094 1725.628906 2005.371094 1708.121094 1992.121094 1684.71875 C 1967.371094 1640.988281 1937.421875 1601.121094 1904.078125 1563.558594 C 1874.621094 1530.390625 1850.558594 1493.390625 1831.539062 1453.21875 C 1804.148438 1395.351562 1791.21875 1335.039062 1791.21875 1272.550781 C 1791.21875 1257.691406 1791.949219 1242.710938 1793.390625 1227.609375 C 1796.328125 1196.859375 1803.191406 1174.898438 1816.25 1159.21875 C 1829.308594 1143.539062 1848.609375 1134.058594 1876.589844 1128.390625 C 1891.730469 1125.308594 1906.800781 1124.03125 1921.820312 1124.03125 C 1955.929688 1124.03125 1989.78125 1130.671875 2023.421875 1138.140625 C 2026.339844 1138.789062 2028.609375 1140.230469 2030.160156 1142.140625 C 2031.710938 1144.058594 2032.539062 1146.449219 2032.539062 1149.019531 C 2032.539062 1152.371094 2031.128906 1156.019531 2028 1159.28125 C 2015.511719 1172.269531 2001.46875 1183.96875 1987.089844 1194.941406 C 1955.589844 1218.941406 1939.421875 1248.5 1939.429688 1285.101562 C 1939.429688 1292.730469 1940.128906 1300.660156 1941.539062 1308.910156 C 1942.179688 1312.691406 1942.488281 1316.390625 1942.488281 1320.011719 C 1942.488281 1341.199219 1931.898438 1360.148438 1915.171875 1380.238281 L 1915.550781 1380.558594 L 1916.011719 1380.359375 C 1908.988281 1363.628906 1901.570312 1350.671875 1898.308594 1336.828125 C 1895.050781 1322.988281 1895.910156 1308.089844 1894.769531 1290.601562 L 1894.679688 1289.300781 L 1893.878906 1290.320312 L 1894.269531 1290.628906 "/>
  <path fill-rule="nonzero"  d="M 2102.300781 1891.570312 C 2116.730469 1890.050781 2131.320312 1889.429688 2145.550781 1886.871094 C 2252.890625 1867.5 2330.238281 1777.871094 2335.828125 1668.648438 C 2337.980469 1626.609375 2335.019531 1585.339844 2326.429688 1544.230469 C 2324.761719 1536.230469 2322.171875 1533.320312 2314.160156 1534.949219 C 2244.351562 1549.121094 2180.039062 1532.558594 2118.179688 1500.558594 C 2089.609375 1485.78125 2059.761719 1478.140625 2028.21875 1492.78125 C 2012.371094 1500.140625 2010.28125 1504.320312 2020.21875 1518.5 C 2049.558594 1560.359375 2063.699219 1608 2074.921875 1656.949219 C 2081.988281 1687.828125 2093.058594 1716.058594 2120.269531 1736.128906 C 2160.910156 1766.109375 2149.921875 1850.5 2111.390625 1878.550781 C 2107.761719 1881.199219 2104.328125 1884.121094 2100.808594 1886.921875 C 2101.308594 1888.46875 2101.808594 1890.019531 2102.300781 1891.570312 "/>
  <path fill-rule="nonzero"  d="M 2102.300781 1891.570312 L 2102.359375 1892.058594 C 2116.761719 1890.550781 2131.359375 1889.929688 2145.640625 1887.359375 C 2253.210938 1867.949219 2330.730469 1778.121094 2336.328125 1668.671875 C 2336.769531 1659.910156 2337 1651.179688 2337 1642.480469 C 2337 1609.398438 2333.730469 1576.710938 2326.921875 1544.128906 C 2326.21875 1540.808594 2325.378906 1538.308594 2323.96875 1536.589844 C 2322.570312 1534.859375 2320.589844 1534 2317.929688 1534.011719 C 2316.78125 1534.011719 2315.5 1534.171875 2314.058594 1534.460938 C 2296.949219 1537.929688 2280.171875 1539.550781 2263.679688 1539.558594 C 2213.011719 1539.550781 2165.03125 1524.230469 2118.410156 1500.109375 C 2100.570312 1490.878906 2082.191406 1484.410156 2063.179688 1484.410156 C 2051.679688 1484.410156 2039.960938 1486.78125 2028.011719 1492.328125 C 2023.25 1494.539062 2019.710938 1496.46875 2017.320312 1498.511719 C 2016.121094 1499.53125 2015.210938 1500.578125 2014.601562 1501.730469 C 2013.980469 1502.859375 2013.679688 1504.089844 2013.679688 1505.398438 C 2013.691406 1508.941406 2015.808594 1513.070312 2019.808594 1518.789062 C 2049.101562 1560.558594 2063.21875 1608.128906 2074.429688 1657.058594 C 2081.511719 1687.980469 2092.621094 1716.359375 2119.980469 1736.539062 C 2137.609375 1749.539062 2145.480469 1772.96875 2145.480469 1797.601562 C 2145.480469 1813.371094 2142.261719 1829.609375 2136.339844 1843.859375 C 2130.421875 1858.101562 2121.820312 1870.339844 2111.101562 1878.148438 C 2107.449219 1880.808594 2104.011719 1883.738281 2100.5 1886.53125 L 2100.230469 1886.738281 L 2100.339844 1887.070312 C 2100.828125 1888.621094 2101.328125 1890.171875 2101.828125 1891.71875 L 2101.949219 1892.109375 L 2102.359375 1892.058594 L 2102.300781 1891.570312 L 2102.78125 1891.410156 C 2102.28125 1889.859375 2101.789062 1888.320312 2101.289062 1886.769531 L 2100.808594 1886.921875 L 2101.121094 1887.308594 C 2104.660156 1884.511719 2108.078125 1881.589844 2111.691406 1878.960938 C 2122.601562 1871.011719 2131.289062 1858.609375 2137.261719 1844.238281 C 2143.230469 1829.871094 2146.480469 1813.511719 2146.480469 1797.601562 C 2146.480469 1772.78125 2138.558594 1749.011719 2120.570312 1735.730469 C 2093.488281 1715.761719 2082.46875 1687.691406 2075.398438 1656.839844 C 2064.179688 1607.871094 2050.03125 1560.160156 2020.628906 1518.210938 C 2016.648438 1512.550781 2014.671875 1508.511719 2014.679688 1505.398438 C 2014.679688 1504.238281 2014.941406 1503.199219 2015.480469 1502.199219 C 2016.28125 1500.699219 2017.738281 1499.28125 2019.890625 1497.820312 C 2022.039062 1496.371094 2024.890625 1494.878906 2028.429688 1493.238281 C 2040.25 1487.75 2051.820312 1485.410156 2063.179688 1485.410156 C 2081.960938 1485.410156 2100.179688 1491.808594 2117.949219 1501 C 2164.671875 1525.171875 2212.808594 1540.558594 2263.679688 1540.550781 C 2280.238281 1540.558594 2297.078125 1538.921875 2314.261719 1535.441406 C 2315.648438 1535.148438 2316.871094 1535.011719 2317.929688 1535.011719 C 2320.398438 1535.03125 2321.96875 1535.738281 2323.199219 1537.21875 C 2324.421875 1538.710938 2325.261719 1541.070312 2325.941406 1544.339844 C 2332.730469 1576.851562 2336 1609.460938 2336 1642.480469 C 2336 1651.160156 2335.769531 1659.878906 2335.328125 1668.621094 C 2329.75 1777.628906 2252.578125 1867.039062 2145.460938 1886.371094 C 2131.269531 1888.929688 2116.699219 1889.550781 2102.25 1891.070312 L 2102.300781 1891.570312 L 2102.78125 1891.410156 L 2102.300781 1891.570312 "/>
  <path fill-rule="nonzero"  d="M 2220.96875 1871.941406 C 2280.390625 1872.261719 2334.769531 1864.839844 2384.539062 1833.941406 C 2415.339844 1814.820312 2434.371094 1789.660156 2440.851562 1754.421875 C 2441.890625 1748.75 2443.121094 1743.089844 2444.660156 1737.539062 C 2450.011719 1718.300781 2459.351562 1714.621094 2475.859375 1725.730469 C 2511.660156 1749.820312 2548.191406 1741.820312 2584.789062 1728.480469 C 2591.960938 1725.859375 2598.691406 1721.910156 2605.429688 1718.210938 C 2648.808594 1694.371094 2665.679688 1656.871094 2661.21875 1608.699219 C 2658.378906 1578.121094 2654.828125 1547.609375 2652.289062 1517.011719 C 2651.75 1510.578125 2653.570312 1503.71875 2655.371094 1497.351562 C 2660.140625 1480.539062 2657.28125 1469.960938 2640.140625 1466.03125 C 2612.238281 1459.640625 2583.488281 1456.550781 2554.960938 1453.398438 C 2543.261719 1452.109375 2527.871094 1450.050781 2520.21875 1456.050781 C 2512.488281 1462.121094 2512.109375 1477.699219 2508.769531 1489.191406 C 2498.148438 1525.71875 2487.019531 1561.96875 2464.480469 1593.480469 C 2451.601562 1611.5 2435.800781 1626.039062 2415.199219 1634.238281 C 2382.410156 1647.28125 2360.890625 1670.449219 2347.289062 1702.761719 C 2335.21875 1731.441406 2322.320312 1759.929688 2307.441406 1787.230469 C 2290.378906 1818.519531 2264.878906 1842.691406 2235.039062 1862.171875 C 2230.851562 1864.898438 2226.820312 1867.871094 2220.96875 1871.941406 "/>
  <path fill-rule="nonzero"  d="M 2220.96875 1871.941406 L 2220.96875 1872.441406 C 2222.160156 1872.449219 2223.351562 1872.449219 2224.539062 1872.449219 C 2282.609375 1872.449219 2335.921875 1864.710938 2384.808594 1834.359375 C 2415.691406 1815.199219 2434.839844 1789.890625 2441.339844 1754.519531 C 2442.378906 1748.851562 2443.601562 1743.210938 2445.140625 1737.671875 C 2446.808594 1731.671875 2448.859375 1727.230469 2451.359375 1724.320312 C 2453.851562 1721.410156 2456.738281 1720.019531 2460.25 1720.011719 C 2464.398438 1720.011719 2469.480469 1722.039062 2475.578125 1726.140625 C 2492.328125 1737.421875 2509.28125 1741.710938 2526.289062 1741.710938 C 2545.800781 1741.710938 2565.390625 1736.078125 2584.960938 1728.949219 C 2592.191406 1726.308594 2598.941406 1722.351562 2605.671875 1718.648438 C 2625.179688 1707.921875 2639.378906 1694.421875 2648.691406 1678.429688 C 2658 1662.429688 2662.410156 1643.949219 2662.410156 1623.28125 C 2662.410156 1618.519531 2662.179688 1613.640625 2661.710938 1608.648438 C 2658.878906 1578.070312 2655.328125 1547.558594 2652.78125 1516.96875 C 2652.71875 1516.210938 2652.691406 1515.429688 2652.691406 1514.660156 C 2652.691406 1509.011719 2654.269531 1503.070312 2655.851562 1497.488281 C 2657.191406 1492.78125 2657.941406 1488.53125 2657.941406 1484.761719 C 2657.941406 1479.878906 2656.671875 1475.761719 2653.800781 1472.53125 C 2650.929688 1469.289062 2646.5 1466.96875 2640.261719 1465.539062 C 2612.308594 1459.140625 2583.550781 1456.058594 2555.011719 1452.910156 C 2549.410156 1452.289062 2542.941406 1451.488281 2536.851562 1451.488281 C 2530.238281 1451.488281 2524.058594 1452.410156 2519.910156 1455.660156 C 2515.878906 1458.828125 2513.851562 1464.351562 2512.359375 1470.46875 C 2510.871094 1476.601562 2509.941406 1483.359375 2508.289062 1489.050781 C 2497.679688 1525.578125 2486.550781 1561.761719 2464.078125 1593.191406 C 2451.230469 1611.148438 2435.5 1625.621094 2415.011719 1633.769531 C 2382.101562 1646.859375 2360.460938 1670.160156 2346.828125 1702.570312 C 2334.769531 1731.238281 2321.859375 1759.710938 2307 1786.988281 C 2289.988281 1818.191406 2264.558594 1842.300781 2234.769531 1861.75 C 2230.558594 1864.5 2226.53125 1867.460938 2220.679688 1871.53125 L 2219.390625 1872.429688 L 2220.96875 1872.441406 L 2220.96875 1871.941406 L 2221.261719 1872.351562 C 2227.109375 1868.28125 2231.140625 1865.308594 2235.308594 1862.589844 C 2265.199219 1843.070312 2290.769531 1818.851562 2307.878906 1787.46875 C 2322.769531 1760.148438 2335.679688 1731.648438 2347.75 1702.960938 C 2361.320312 1670.738281 2382.71875 1647.699219 2415.378906 1634.699219 C 2436.089844 1626.460938 2451.96875 1611.839844 2464.890625 1593.769531 C 2487.488281 1562.171875 2498.628906 1525.859375 2509.25 1489.328125 C 2510.929688 1483.539062 2511.859375 1476.761719 2513.328125 1470.710938 C 2514.800781 1464.648438 2516.820312 1459.339844 2520.53125 1456.449219 C 2524.339844 1453.441406 2530.328125 1452.480469 2536.851562 1452.488281 C 2542.851562 1452.488281 2549.289062 1453.28125 2554.898438 1453.898438 C 2583.441406 1457.050781 2612.160156 1460.128906 2640.03125 1466.519531 C 2646.148438 1467.921875 2650.371094 1470.171875 2653.050781 1473.191406 C 2655.730469 1476.210938 2656.929688 1480.039062 2656.941406 1484.761719 C 2656.941406 1488.398438 2656.210938 1492.558594 2654.890625 1497.21875 C 2653.308594 1502.808594 2651.691406 1508.828125 2651.691406 1514.660156 C 2651.691406 1515.460938 2651.71875 1516.261719 2651.789062 1517.050781 C 2654.339844 1547.660156 2657.890625 1578.179688 2660.71875 1608.738281 C 2661.179688 1613.710938 2661.410156 1618.550781 2661.410156 1623.28125 C 2661.410156 1643.808594 2657.03125 1662.101562 2647.820312 1677.921875 C 2638.609375 1693.75 2624.570312 1707.121094 2605.191406 1717.769531 C 2598.449219 1721.480469 2591.738281 1725.410156 2584.621094 1728.011719 C 2565.089844 1735.128906 2545.609375 1740.710938 2526.289062 1740.710938 C 2509.449219 1740.699219 2492.730469 1736.480469 2476.140625 1725.320312 C 2469.960938 1721.160156 2464.730469 1719.019531 2460.25 1719.011719 C 2456.460938 1719 2453.230469 1720.578125 2450.601562 1723.671875 C 2447.960938 1726.75 2445.871094 1731.320312 2444.179688 1737.398438 C 2442.628906 1742.980469 2441.398438 1748.648438 2440.359375 1754.328125 C 2433.890625 1789.429688 2414.980469 1814.441406 2384.28125 1833.511719 C 2335.609375 1863.71875 2282.53125 1871.449219 2224.539062 1871.449219 C 2223.351562 1871.449219 2222.160156 1871.449219 2220.96875 1871.441406 L 2220.96875 1871.941406 L 2221.261719 1872.351562 L 2220.96875 1871.941406 "/>
  <path fill-rule="nonzero"  d="M 1954.269531 1114.808594 C 1980.21875 1119.640625 2002.28125 1123.738281 2024.269531 1127.828125 C 2030.25 1103.25 2030.320312 1104.011719 2060.398438 1101.210938 C 2086.050781 1098.820312 2112.101562 1096.730469 2136.898438 1090.351562 C 2170.339844 1081.75 2195.609375 1091.910156 2218.871094 1115.019531 C 2245.019531 1141 2272.300781 1165.839844 2299.078125 1191.191406 C 2313.46875 1204.820312 2323.410156 1220.398438 2324.859375 1241.101562 C 2325.300781 1247.328125 2329.691406 1254.550781 2334.429688 1259.019531 C 2373.019531 1295.441406 2406.660156 1335 2419.980469 1388.050781 C 2435.640625 1450.480469 2409.660156 1501.671875 2349.480469 1524.21875 C 2336.011719 1529.269531 2333.679688 1534.859375 2336.511719 1548.191406 C 2340.988281 1569.21875 2343.839844 1590.761719 2345.351562 1612.21875 C 2346.851562 1633.570312 2345.828125 1655.089844 2345.929688 1677.988281 C 2349.320312 1674.820312 2353.089844 1672.558594 2355.078125 1669.238281 C 2365.941406 1651.109375 2382.089844 1638.660156 2400.980469 1631.328125 C 2444.808594 1614.320312 2467.988281 1579.421875 2483.28125 1538.320312 C 2493.140625 1511.800781 2500.839844 1484.21875 2506.738281 1456.53125 C 2517.71875 1405.019531 2509.25 1355.210938 2475.558594 1314.960938 C 2440.378906 1272.910156 2417.140625 1224.859375 2392.339844 1177.199219 C 2374.179688 1142.300781 2351.5 1110.808594 2320.191406 1086.5 C 2286.839844 1060.609375 2247.589844 1048.589844 2206.421875 1045.269531 C 2147.738281 1040.53125 2088.828125 1042.191406 2032.921875 1062.890625 C 2009.480469 1071.570312 1988.359375 1086.699219 1966.648438 1099.671875 C 1961.949219 1102.480469 1959.21875 1108.578125 1954.269531 1114.808594 "/>
  <path fill-rule="nonzero"  d="M 1954.269531 1114.808594 L 1954.179688 1115.300781 C 1980.128906 1120.128906 2002.191406 1124.230469 2024.179688 1128.320312 L 2024.648438 1128.410156 L 2024.761719 1127.949219 C 2026.25 1121.800781 2027.378906 1117.25 2028.671875 1113.871094 C 2029.648438 1111.328125 2030.710938 1109.46875 2032.089844 1108.039062 C 2034.148438 1105.921875 2036.960938 1104.71875 2041.429688 1103.859375 C 2045.898438 1103 2051.980469 1102.488281 2060.449219 1101.710938 C 2086.089844 1099.320312 2112.171875 1097.230469 2137.019531 1090.839844 C 2144.949219 1088.800781 2152.398438 1087.820312 2159.46875 1087.820312 C 2182.101562 1087.828125 2200.839844 1097.820312 2218.519531 1115.371094 C 2244.679688 1141.371094 2271.960938 1166.210938 2298.738281 1191.558594 C 2313.078125 1205.140625 2322.921875 1220.578125 2324.359375 1241.128906 C 2324.828125 1247.570312 2329.269531 1254.828125 2334.089844 1259.390625 C 2372.660156 1295.78125 2406.210938 1335.261719 2419.488281 1388.171875 C 2422.480469 1400.078125 2423.949219 1411.578125 2423.949219 1422.53125 C 2423.949219 1445.691406 2417.398438 1466.441406 2404.808594 1483.679688 C 2392.210938 1500.921875 2373.558594 1514.660156 2349.300781 1523.75 C 2344.160156 1525.679688 2340.578125 1527.699219 2338.261719 1530.261719 C 2335.941406 1532.820312 2334.941406 1535.921875 2334.949219 1539.800781 C 2334.949219 1542.269531 2335.339844 1545.058594 2336.03125 1548.289062 C 2340.5 1569.300781 2343.339844 1590.808594 2344.851562 1612.261719 C 2345.5 1621.519531 2345.679688 1630.808594 2345.679688 1640.25 C 2345.679688 1651.519531 2345.421875 1662.980469 2345.421875 1674.808594 C 2345.421875 1675.871094 2345.421875 1676.929688 2345.429688 1677.988281 L 2345.429688 1679.128906 L 2346.269531 1678.351562 C 2349.609375 1675.21875 2353.410156 1672.96875 2355.511719 1669.488281 C 2366.308594 1651.46875 2382.359375 1639.089844 2401.160156 1631.789062 C 2445.171875 1614.730469 2468.441406 1579.648438 2483.75 1538.488281 C 2493.621094 1511.949219 2501.328125 1484.351562 2507.230469 1456.640625 C 2510.21875 1442.628906 2511.769531 1428.75 2511.769531 1415.140625 C 2511.769531 1378.601562 2500.570312 1344.058594 2475.941406 1314.640625 C 2440.808594 1272.660156 2417.589844 1224.640625 2392.78125 1176.960938 C 2374.601562 1142.03125 2351.878906 1110.46875 2320.5 1086.109375 C 2287.050781 1060.140625 2247.699219 1048.101562 2206.460938 1044.769531 C 2189.539062 1043.398438 2172.589844 1042.570312 2155.699219 1042.570312 C 2113.988281 1042.570312 2072.609375 1047.660156 2032.738281 1062.421875 C 2009.21875 1071.140625 1988.078125 1086.289062 1966.390625 1099.238281 C 1963.941406 1100.710938 1962.050781 1102.988281 1960.140625 1105.660156 C 1958.238281 1108.339844 1956.328125 1111.410156 1953.878906 1114.5 L 1953.359375 1115.148438 L 1954.179688 1115.300781 L 1954.269531 1114.808594 L 1954.660156 1115.121094 C 1957.160156 1111.980469 1959.078125 1108.878906 1960.960938 1106.238281 C 1962.828125 1103.609375 1964.660156 1101.441406 1966.910156 1100.101562 C 1988.640625 1087.121094 2009.738281 1072.011719 2033.089844 1063.359375 C 2072.820312 1048.648438 2114.070312 1043.570312 2155.699219 1043.570312 C 2172.558594 1043.570312 2189.480469 1044.398438 2206.378906 1045.769531 C 2247.480469 1049.089844 2286.621094 1061.078125 2319.890625 1086.898438 C 2351.109375 1111.140625 2373.761719 1142.570312 2391.898438 1177.429688 C 2416.699219 1225.078125 2439.941406 1273.171875 2475.179688 1315.28125 C 2499.648438 1344.519531 2510.761719 1378.800781 2510.769531 1415.140625 C 2510.769531 1428.671875 2509.21875 1442.488281 2506.25 1456.429688 C 2500.359375 1484.101562 2492.671875 1511.648438 2482.808594 1538.140625 C 2467.539062 1579.179688 2444.460938 1613.921875 2400.800781 1630.859375 C 2381.820312 1638.21875 2365.570312 1650.75 2354.648438 1668.980469 C 2352.761719 1672.148438 2349.039062 1674.421875 2345.589844 1677.621094 L 2345.929688 1677.988281 L 2346.429688 1677.988281 C 2346.421875 1676.921875 2346.421875 1675.871094 2346.421875 1674.808594 C 2346.421875 1663 2346.679688 1651.53125 2346.679688 1640.25 C 2346.679688 1630.800781 2346.5 1621.480469 2345.851562 1612.191406 C 2344.339844 1590.699219 2341.480469 1569.140625 2337 1548.089844 C 2336.320312 1544.890625 2335.949219 1542.160156 2335.949219 1539.800781 C 2335.949219 1536.078125 2336.859375 1533.300781 2339 1530.929688 C 2341.140625 1528.558594 2344.570312 1526.589844 2349.648438 1524.691406 C 2374.058594 1515.539062 2392.890625 1501.691406 2405.621094 1484.269531 C 2418.339844 1466.851562 2424.949219 1445.871094 2424.949219 1422.53125 C 2424.949219 1411.488281 2423.46875 1399.910156 2420.460938 1387.929688 C 2407.109375 1334.730469 2373.390625 1295.101562 2334.769531 1258.660156 C 2330.101562 1254.269531 2325.769531 1247.101562 2325.359375 1241.058594 C 2323.898438 1220.210938 2313.871094 1204.5 2299.429688 1190.828125 C 2272.640625 1165.480469 2245.359375 1140.640625 2219.21875 1114.660156 C 2201.449219 1097 2182.410156 1086.820312 2159.46875 1086.820312 C 2152.308594 1086.820312 2144.769531 1087.808594 2136.78125 1089.871094 C 2112.03125 1096.230469 2086 1098.328125 2060.351562 1100.710938 C 2052.828125 1101.410156 2047.191406 1101.890625 2042.820312 1102.601562 C 2039.550781 1103.128906 2037 1103.800781 2034.921875 1104.808594 C 2031.800781 1106.320312 2029.820312 1108.648438 2028.25 1112.261719 C 2026.679688 1115.871094 2025.46875 1120.800781 2023.789062 1127.710938 L 2024.269531 1127.828125 L 2024.359375 1127.339844 C 2002.371094 1123.25 1980.308594 1119.140625 1954.359375 1114.320312 L 1954.269531 1114.808594 L 1954.660156 1115.121094 L 1954.269531 1114.808594 "/>
  <path fill-rule="nonzero"  d="M 1839.449219 1492.378906 C 1838.148438 1496.371094 1836.828125 1498.53125 1836.828125 1500.691406 C 1836.898438 1536.660156 1820.441406 1567.429688 1806.511719 1599.101562 C 1784.621094 1648.820312 1790.378906 1697.78125 1813.601562 1745.140625 C 1837.871094 1794.648438 1878.359375 1827.199219 1927.328125 1850.851562 C 1967.699219 1870.351562 2010.730469 1879.980469 2054.28125 1888 C 2083.261719 1893.328125 2120.558594 1867.300781 2131.28125 1835.289062 C 2140.960938 1806.390625 2127.78125 1775.351562 2098.28125 1760.558594 C 2085.949219 1754.378906 2072.75 1749.03125 2059.339844 1746.089844 C 2026.230469 1738.820312 2001.820312 1721.050781 1985.261719 1691.550781 C 1956.640625 1640.570312 1919.371094 1595.96875 1881.96875 1551.378906 C 1866.929688 1533.449219 1854.449219 1513.371094 1839.449219 1492.378906 "/>
  <path fill-rule="nonzero"  d="M 1839.449219 1492.378906 L 1838.980469 1492.230469 C 1838.339844 1494.199219 1837.691406 1495.71875 1837.191406 1497.039062 C 1836.691406 1498.359375 1836.328125 1499.5 1836.328125 1500.679688 L 1836.328125 1500.71875 L 1836.828125 1500.691406 L 1836.328125 1500.691406 L 1836.328125 1500.921875 C 1836.339844 1536.628906 1819.96875 1567.269531 1806.050781 1598.898438 C 1796.621094 1620.328125 1792.300781 1641.640625 1792.300781 1662.738281 C 1792.300781 1690.71875 1799.890625 1718.308594 1813.148438 1745.359375 C 1837.480469 1794.988281 1878.078125 1827.621094 1927.109375 1851.300781 C 1967.550781 1870.828125 2010.628906 1880.46875 2054.191406 1888.488281 C 2056.78125 1888.96875 2059.429688 1889.191406 2062.121094 1889.191406 C 2076.019531 1889.191406 2090.960938 1883.089844 2103.660156 1873.328125 C 2116.359375 1863.578125 2126.828125 1850.160156 2131.761719 1835.441406 C 2133.890625 1829.078125 2134.921875 1822.609375 2134.921875 1816.230469 C 2134.921875 1793.398438 2121.710938 1771.75 2098.511719 1760.109375 C 2086.148438 1753.921875 2072.910156 1748.558594 2059.441406 1745.601562 C 2026.449219 1738.351562 2002.199219 1720.691406 1985.699219 1691.300781 C 1957.050781 1640.269531 1919.75 1595.648438 1882.351562 1551.058594 C 1867.339844 1533.171875 1854.871094 1513.101562 1839.859375 1492.089844 L 1839.289062 1491.289062 L 1838.980469 1492.230469 L 1839.449219 1492.378906 L 1839.050781 1492.671875 C 1854.03125 1513.648438 1866.511719 1533.738281 1881.578125 1551.699219 C 1918.988281 1596.289062 1956.238281 1640.871094 1984.828125 1691.789062 C 2001.441406 1721.410156 2026 1739.289062 2059.230469 1746.578125 C 2072.589844 1749.511719 2085.75 1754.828125 2098.058594 1761.011719 C 2120.949219 1772.488281 2133.921875 1793.800781 2133.921875 1816.230469 C 2133.921875 1822.5 2132.910156 1828.859375 2130.808594 1835.128906 C 2125.960938 1849.609375 2115.609375 1862.890625 2103.050781 1872.539062 C 2090.488281 1882.191406 2075.730469 1888.199219 2062.121094 1888.191406 C 2059.488281 1888.191406 2056.898438 1887.96875 2054.371094 1887.511719 C 2010.828125 1879.488281 1967.851562 1869.871094 1927.539062 1850.398438 C 1878.640625 1826.78125 1838.261719 1794.300781 1814.050781 1744.921875 C 1800.839844 1717.96875 1793.300781 1690.53125 1793.300781 1662.738281 C 1793.300781 1641.78125 1797.578125 1620.621094 1806.96875 1599.300781 C 1820.859375 1567.71875 1837.328125 1536.949219 1837.328125 1500.921875 L 1837.328125 1500.660156 L 1836.921875 1500.679688 L 1837.328125 1500.679688 L 1837.328125 1500.660156 L 1836.921875 1500.679688 L 1837.328125 1500.679688 C 1837.328125 1499.710938 1837.640625 1498.691406 1838.121094 1497.390625 C 1838.609375 1496.101562 1839.269531 1494.550781 1839.929688 1492.539062 L 1839.449219 1492.378906 L 1839.050781 1492.671875 L 1839.449219 1492.378906 "/>
  <path fill-rule="nonzero"  d="M 2040.960938 1921.261719 C 2056.160156 1948 2066.089844 1975.039062 2083.949219 1995 C 2128.261719 2044.539062 2212.390625 2053.558594 2272.488281 2017.609375 C 2302.089844 1999.890625 2329.691406 1978.859375 2358.660156 1960.039062 C 2390.789062 1939.179688 2426.21875 1928.859375 2464.679688 1927.890625 C 2495.179688 1927.109375 2511.039062 1911.910156 2509.371094 1887.160156 C 2507.628906 1861.480469 2483.851562 1848.53125 2462.03125 1861.929688 C 2423.820312 1885.398438 2383.179688 1892.398438 2339.109375 1883.699219 C 2287.820312 1873.570312 2236.878906 1879.371094 2186.320312 1890.089844 C 2138.128906 1900.300781 2089.988281 1910.738281 2040.960938 1921.261719 "/>
  <path fill-rule="nonzero"  d="M 2040.960938 1921.261719 L 2040.519531 1921.511719 C 2055.699219 1948.199219 2065.640625 1975.269531 2083.570312 1995.328125 C 2109.929688 2024.789062 2150.25 2039.960938 2191.269531 2039.960938 C 2219.539062 2039.960938 2248.140625 2032.761719 2272.738281 2018.039062 C 2302.378906 2000.300781 2329.980469 1979.261719 2358.929688 1960.460938 C 2390.980469 1939.660156 2426.308594 1929.359375 2464.691406 1928.390625 C 2479.28125 1928.019531 2490.601562 1924.359375 2498.289062 1917.878906 C 2505.988281 1911.398438 2509.988281 1902.101562 2509.980469 1890.648438 C 2509.980469 1889.488281 2509.941406 1888.320312 2509.859375 1887.121094 C 2509.230469 1877.691406 2505.640625 1869.921875 2500.261719 1864.519531 C 2494.871094 1859.109375 2487.679688 1856.070312 2479.890625 1856.070312 C 2474.019531 1856.070312 2467.808594 1857.789062 2461.769531 1861.511719 C 2434.148438 1878.46875 2405.28125 1886.800781 2374.738281 1886.800781 C 2363.148438 1886.800781 2351.308594 1885.601562 2339.210938 1883.210938 C 2320.519531 1879.519531 2301.878906 1877.941406 2283.289062 1877.941406 C 2250.769531 1877.941406 2218.410156 1882.769531 2186.21875 1889.601562 C 2138.019531 1899.808594 2089.878906 1910.25 2040.851562 1920.769531 L 2040.179688 1920.910156 L 2040.519531 1921.511719 L 2040.960938 1921.261719 L 2041.058594 1921.75 C 2090.089844 1911.21875 2138.230469 1900.789062 2186.421875 1890.570312 C 2218.570312 1883.761719 2250.871094 1878.941406 2283.289062 1878.941406 C 2301.820312 1878.941406 2320.398438 1880.511719 2339.019531 1884.191406 C 2351.179688 1886.589844 2363.078125 1887.800781 2374.738281 1887.800781 C 2405.460938 1887.800781 2434.53125 1879.410156 2462.289062 1862.359375 C 2468.191406 1858.730469 2474.21875 1857.070312 2479.890625 1857.070312 C 2487.421875 1857.070312 2494.339844 1860 2499.550781 1865.21875 C 2504.75 1870.449219 2508.238281 1877.96875 2508.871094 1887.191406 C 2508.941406 1888.371094 2508.980469 1889.519531 2508.980469 1890.648438 C 2508.980469 1901.878906 2505.101562 1910.828125 2497.648438 1917.109375 C 2490.199219 1923.398438 2479.109375 1927.019531 2464.660156 1927.390625 C 2426.121094 1928.359375 2390.589844 1938.710938 2358.390625 1959.628906 C 2329.398438 1978.449219 2301.800781 1999.480469 2272.230469 2017.179688 C 2247.800781 2031.800781 2219.371094 2038.960938 2191.269531 2038.960938 C 2150.488281 2038.960938 2110.441406 2023.871094 2084.320312 1994.671875 C 2066.550781 1974.808594 2056.609375 1947.808594 2041.390625 1921.011719 L 2040.960938 1921.261719 L 2041.058594 1921.75 L 2040.960938 1921.261719 "/>
  <path fill-rule="nonzero"  d="M 2380.28125 1136.628906 C 2390.078125 1154.578125 2400.53125 1172.21875 2409.570312 1190.550781 C 2430.421875 1232.839844 2453.160156 1273.460938 2483.640625 1310.199219 C 2511.460938 1343.738281 2522.429688 1384.949219 2519.191406 1428.941406 C 2518.371094 1440.03125 2522.851562 1443.570312 2533.03125 1443.769531 C 2549.351562 1444.089844 2565.660156 1445.089844 2581.96875 1445.71875 C 2607.808594 1446.71875 2632.480469 1418.210938 2632.539062 1387.480469 C 2632.621094 1343.160156 2613.640625 1305.558594 2590.269531 1269.828125 C 2550.261719 1208.648438 2494.320312 1166.890625 2427.011719 1140.21875 C 2413.328125 1134.789062 2397.789062 1134.058594 2383.101562 1131.171875 C 2382.160156 1132.988281 2381.21875 1134.808594 2380.28125 1136.628906 "/>
  <path fill-rule="nonzero"  d="M 2380.28125 1136.628906 L 2379.839844 1136.871094 C 2389.648438 1154.828125 2400.101562 1172.460938 2409.121094 1190.769531 C 2429.980469 1233.078125 2452.738281 1273.730469 2483.261719 1310.519531 C 2507.851562 1340.171875 2519.238281 1375.828125 2519.238281 1414.140625 C 2519.238281 1419.019531 2519.050781 1423.941406 2518.691406 1428.898438 C 2518.621094 1429.769531 2518.589844 1430.589844 2518.589844 1431.371094 C 2518.589844 1433.710938 2518.878906 1435.679688 2519.480469 1437.328125 C 2520.371094 1439.808594 2522 1441.550781 2524.28125 1442.640625 C 2526.550781 1443.730469 2529.460938 1444.199219 2533.019531 1444.269531 C 2549.328125 1444.589844 2565.628906 1445.589844 2581.949219 1446.21875 C 2582.398438 1446.238281 2582.851562 1446.25 2583.300781 1446.25 C 2596.160156 1446.238281 2608.578125 1439.140625 2617.78125 1428.261719 C 2626.988281 1417.390625 2633.011719 1402.71875 2633.039062 1387.480469 C 2633.039062 1387.390625 2633.039062 1387.289062 2633.039062 1387.199219 C 2633.039062 1342.851562 2614.019531 1305.238281 2590.679688 1269.550781 C 2550.621094 1208.289062 2494.578125 1166.460938 2427.191406 1139.75 C 2413.398438 1134.289062 2397.828125 1133.570312 2383.199219 1130.679688 L 2382.828125 1130.609375 L 2382.660156 1130.941406 C 2381.71875 1132.761719 2380.769531 1134.578125 2379.828125 1136.398438 L 2379.710938 1136.640625 L 2379.839844 1136.871094 L 2380.28125 1136.628906 L 2380.71875 1136.859375 C 2381.660156 1135.039062 2382.609375 1133.21875 2383.550781 1131.398438 L 2383.101562 1131.171875 L 2383.011719 1131.660156 C 2397.738281 1134.558594 2413.25 1135.300781 2426.820312 1140.679688 C 2494.058594 1167.328125 2549.898438 1209.019531 2589.851562 1270.101562 C 2613.148438 1305.730469 2632.039062 1343.148438 2632.039062 1387.199219 C 2632.039062 1387.289062 2632.039062 1387.390625 2632.039062 1387.480469 C 2632.011719 1402.449219 2626.078125 1416.910156 2617.019531 1427.621094 C 2607.960938 1438.328125 2595.78125 1445.25 2583.300781 1445.25 C 2582.859375 1445.25 2582.429688 1445.238281 2581.988281 1445.21875 C 2565.691406 1444.589844 2549.378906 1443.589844 2533.039062 1443.269531 C 2528.390625 1443.179688 2525.019531 1442.371094 2522.859375 1440.558594 C 2521.769531 1439.660156 2520.96875 1438.488281 2520.421875 1436.988281 C 2519.871094 1435.480469 2519.589844 1433.628906 2519.589844 1431.371094 C 2519.589844 1430.621094 2519.621094 1429.820312 2519.691406 1428.980469 C 2520.050781 1423.988281 2520.238281 1419.039062 2520.238281 1414.140625 C 2520.238281 1375.628906 2508.78125 1339.71875 2484.03125 1309.878906 C 2453.589844 1273.191406 2430.871094 1232.601562 2410.019531 1190.328125 C 2400.96875 1171.96875 2390.519531 1154.328125 2380.710938 1136.390625 L 2380.28125 1136.628906 L 2380.71875 1136.859375 L 2380.28125 1136.628906 "/>
  <path fill-rule="nonzero"  d="M 1803.949219 1150.519531 C 1791.808594 1150.878906 1779.46875 1149.988281 1767.550781 1151.800781 C 1703.238281 1161.578125 1637.378906 1223.21875 1624.890625 1286.898438 C 1621.851562 1302.390625 1623 1319.628906 1626.269531 1335.21875 C 1631.46875 1359.949219 1651.308594 1374.929688 1676.460938 1374.609375 C 1742.808594 1373.75 1786.671875 1407.421875 1816.328125 1463.660156 C 1818.261719 1467.308594 1818.988281 1471.589844 1820.28125 1475.578125 C 1822.261719 1474.738281 1824.238281 1473.898438 1826.21875 1473.050781 C 1824.5 1466.53125 1823.699219 1459.589844 1820.910156 1453.558594 C 1791.140625 1389.019531 1777.910156 1321.121094 1781.898438 1250.390625 C 1783.75 1217.558594 1784.941406 1183.789062 1806.140625 1155.210938 C 1805.410156 1153.648438 1804.679688 1152.089844 1803.949219 1150.519531 "/>
  <path fill-rule="nonzero"  d="M 1803.949219 1150.519531 L 1803.929688 1150.019531 C 1801.289062 1150.101562 1798.640625 1150.121094 1795.988281 1150.121094 C 1793.601562 1150.121094 1791.210938 1150.101562 1788.820312 1150.101562 C 1781.671875 1150.101562 1774.511719 1150.238281 1767.480469 1151.308594 C 1735.191406 1156.21875 1702.570312 1174.121094 1676.441406 1198.78125 C 1650.320312 1223.429688 1630.671875 1254.828125 1624.398438 1286.808594 C 1623.171875 1293.078125 1622.621094 1299.621094 1622.621094 1306.230469 C 1622.621094 1316.039062 1623.820312 1325.980469 1625.789062 1335.320312 C 1628.371094 1347.660156 1634.589844 1357.621094 1643.289062 1364.480469 C 1652 1371.351562 1663.171875 1375.109375 1675.660156 1375.109375 C 1675.929688 1375.109375 1676.199219 1375.109375 1676.46875 1375.109375 C 1677.300781 1375.101562 1678.121094 1375.089844 1678.941406 1375.089844 C 1711.339844 1375.089844 1738.25 1383.441406 1760.730469 1398.710938 C 1783.210938 1413.980469 1801.269531 1436.171875 1815.890625 1463.890625 C 1817.769531 1467.449219 1818.5 1471.699219 1819.800781 1475.738281 L 1819.96875 1476.261719 L 1820.46875 1476.039062 C 1822.449219 1475.199219 1824.429688 1474.359375 1826.410156 1473.511719 L 1826.808594 1473.339844 L 1826.699219 1472.921875 C 1824.988281 1466.449219 1824.191406 1459.480469 1821.371094 1453.351562 C 1795.078125 1396.371094 1781.710938 1336.78125 1781.710938 1274.921875 C 1781.710938 1266.789062 1781.941406 1258.628906 1782.398438 1250.421875 C 1784.25 1217.570312 1785.449219 1183.929688 1806.539062 1155.511719 L 1806.71875 1155.269531 L 1806.589844 1155 C 1805.859375 1153.441406 1805.128906 1151.878906 1804.398438 1150.308594 L 1804.261719 1150.011719 L 1803.929688 1150.019531 L 1803.949219 1150.519531 L 1803.488281 1150.730469 C 1804.21875 1152.300781 1804.960938 1153.859375 1805.691406 1155.429688 L 1806.140625 1155.210938 L 1805.738281 1154.921875 C 1784.421875 1183.648438 1783.261719 1217.550781 1781.398438 1250.359375 C 1780.941406 1258.589844 1780.710938 1266.769531 1780.710938 1274.921875 C 1780.710938 1336.921875 1794.109375 1396.671875 1820.460938 1453.769531 C 1823.199219 1459.699219 1824 1466.609375 1825.730469 1473.179688 L 1826.21875 1473.050781 L 1826.019531 1472.589844 C 1824.039062 1473.441406 1822.058594 1474.28125 1820.078125 1475.128906 L 1820.28125 1475.578125 L 1820.75 1475.429688 C 1819.480469 1471.488281 1818.75 1467.179688 1816.78125 1463.429688 C 1802.101562 1435.601562 1783.941406 1413.269531 1761.289062 1397.878906 C 1738.640625 1382.5 1711.511719 1374.089844 1678.941406 1374.089844 C 1678.109375 1374.089844 1677.289062 1374.101562 1676.460938 1374.109375 C 1676.191406 1374.109375 1675.921875 1374.109375 1675.660156 1374.109375 C 1663.371094 1374.109375 1652.429688 1370.410156 1643.910156 1363.699219 C 1635.398438 1356.980469 1629.308594 1347.25 1626.761719 1335.121094 C 1624.808594 1325.828125 1623.621094 1315.960938 1623.621094 1306.230469 C 1623.621094 1299.679688 1624.160156 1293.191406 1625.378906 1287 C 1631.601562 1255.289062 1651.128906 1224.039062 1677.128906 1199.5 C 1703.128906 1174.96875 1735.601562 1157.160156 1767.628906 1152.289062 C 1774.570312 1151.238281 1781.679688 1151.101562 1788.820312 1151.101562 C 1791.210938 1151.101562 1793.601562 1151.121094 1795.988281 1151.121094 C 1798.648438 1151.121094 1801.308594 1151.101562 1803.960938 1151.019531 L 1803.949219 1150.519531 L 1803.488281 1150.730469 L 1803.949219 1150.519531 "/>
  <path fill-rule="nonzero"  d="M 2192.699219 1362.359375 C 2177.671875 1342.460938 2157.628906 1327.589844 2134.921875 1316.078125 C 2113.621094 1305.28125 2094.621094 1292 2081.929688 1271.078125 C 2058.738281 1232.851562 2075.339844 1180.109375 2116.460938 1165.160156 C 2126.199219 1161.621094 2138.171875 1161.710938 2148.660156 1163.238281 C 2172.808594 1166.761719 2196.601562 1172.730469 2220.699219 1176.699219 C 2248.679688 1181.300781 2273.980469 1188.820312 2287.128906 1217.78125 C 2298.789062 1243.488281 2294.960938 1268.359375 2273.289062 1286.75 C 2259.78125 1298.210938 2244.71875 1307.839844 2230.609375 1318.609375 C 2224.160156 1323.53125 2217.5 1328.558594 2212.339844 1334.71875 C 2198.660156 1351.070312 2199.238281 1361.269531 2214.160156 1375.898438 C 2216 1377.691406 2221.609375 1378.308594 2223.601562 1376.871094 C 2251.890625 1356.371094 2283.46875 1338.378906 2298.828125 1305.328125 C 2307.550781 1286.578125 2312.808594 1265.441406 2315.398438 1244.839844 C 2317.800781 1225.769531 2306.191406 1210.398438 2292.199219 1197.390625 C 2264.828125 1171.929688 2237.398438 1146.5 2210.828125 1120.210938 C 2189.300781 1098.898438 2165.640625 1093.359375 2135.890625 1100.261719 C 2107.660156 1106.808594 2078.269531 1108.691406 2049.289062 1111.511719 C 2038.480469 1112.558594 2034.671875 1115 2037.96875 1126.460938 C 2045.960938 1154.238281 2041.359375 1180.589844 2026.769531 1205.421875 C 2023.859375 1210.359375 2022.261719 1216.058594 2019.429688 1221.058594 C 1994.378906 1265.179688 2007.878906 1295.640625 2052.238281 1323.070312 C 2070.941406 1334.628906 2093.429688 1340.960938 2114.980469 1346.78125 C 2140.070312 1353.550781 2166.019531 1357.160156 2192.699219 1362.359375 "/>
  <path fill-rule="nonzero"  d="M 2192.699219 1362.359375 L 2193.101562 1362.058594 C 2178.011719 1342.089844 2157.910156 1327.171875 2135.148438 1315.628906 C 2113.878906 1304.851562 2094.96875 1291.628906 2082.359375 1270.820312 C 2075.21875 1259.058594 2071.878906 1245.910156 2071.878906 1232.921875 C 2071.878906 1203.980469 2088.46875 1175.859375 2116.628906 1165.628906 C 2122.351562 1163.550781 2128.871094 1162.730469 2135.421875 1162.730469 C 2139.878906 1162.730469 2144.351562 1163.109375 2148.589844 1163.730469 C 2172.710938 1167.238281 2196.488281 1173.21875 2220.621094 1177.191406 C 2234.589844 1179.488281 2247.859375 1182.519531 2259.238281 1188.550781 C 2270.628906 1194.578125 2280.140625 1203.609375 2286.671875 1217.988281 C 2290.921875 1227.351562 2293.089844 1236.578125 2293.089844 1245.410156 C 2293.078125 1260.691406 2286.601562 1274.789062 2272.960938 1286.371094 C 2259.488281 1297.800781 2244.441406 1307.421875 2230.308594 1318.210938 C 2223.859375 1323.140625 2217.171875 1328.179688 2211.960938 1334.398438 C 2205.378906 1342.269531 2202.011719 1348.789062 2202.011719 1355.148438 C 2202 1358.601562 2203.011719 1361.980469 2204.980469 1365.429688 C 2206.960938 1368.878906 2209.898438 1372.421875 2213.808594 1376.25 C 2214.480469 1376.898438 2215.46875 1377.359375 2216.601562 1377.679688 C 2217.71875 1378 2218.96875 1378.171875 2220.160156 1378.171875 C 2221.621094 1378.160156 2222.96875 1377.929688 2223.890625 1377.28125 C 2252.140625 1356.800781 2283.828125 1338.769531 2299.289062 1305.539062 C 2308.03125 1286.730469 2313.300781 1265.539062 2315.898438 1244.898438 C 2316.109375 1243.191406 2316.21875 1241.5 2316.21875 1239.851562 C 2316.21875 1231.339844 2313.488281 1223.601562 2309.171875 1216.511719 C 2304.851562 1209.410156 2298.941406 1202.96875 2292.539062 1197.019531 C 2265.171875 1171.558594 2237.738281 1146.128906 2211.179688 1119.851562 C 2195.351562 1104.179688 2178.28125 1096.949219 2158.550781 1096.960938 C 2151.339844 1096.960938 2143.769531 1097.921875 2135.78125 1099.769531 C 2107.601562 1106.308594 2078.238281 1108.191406 2049.238281 1111.011719 C 2045.070312 1111.421875 2041.898438 1112.019531 2039.691406 1113.328125 C 2038.578125 1113.988281 2037.730469 1114.851562 2037.160156 1115.929688 C 2036.589844 1117.011719 2036.320312 1118.300781 2036.320312 1119.828125 C 2036.320312 1121.691406 2036.71875 1123.910156 2037.488281 1126.601562 C 2040.101562 1135.679688 2041.359375 1144.601562 2041.359375 1153.371094 C 2041.359375 1171.28125 2036.101562 1188.550781 2026.339844 1205.160156 C 2023.390625 1210.179688 2021.789062 1215.890625 2018.988281 1220.808594 C 2010.550781 1235.691406 2006.449219 1249.058594 2006.449219 1261.328125 C 2006.441406 1273.429688 2010.449219 1284.441406 2018.148438 1294.671875 C 2025.851562 1304.898438 2037.21875 1314.371094 2051.980469 1323.488281 C 2070.761719 1335.101562 2093.300781 1341.441406 2114.851562 1347.261719 C 2139.980469 1354.050781 2165.941406 1357.660156 2192.609375 1362.859375 L 2193.890625 1363.109375 L 2193.101562 1362.058594 L 2192.699219 1362.359375 L 2192.800781 1361.871094 C 2166.101562 1356.671875 2140.160156 1353.058594 2115.109375 1346.289062 C 2093.570312 1340.480469 2071.121094 1334.148438 2052.5 1322.640625 C 2037.808594 1313.558594 2026.539062 1304.160156 2018.949219 1294.070312 C 2011.359375 1283.96875 2007.449219 1273.210938 2007.449219 1261.328125 C 2007.449219 1249.289062 2011.46875 1236.089844 2019.859375 1221.300781 C 2022.730469 1216.238281 2024.328125 1210.539062 2027.199219 1205.671875 C 2037.039062 1188.929688 2042.359375 1171.480469 2042.359375 1153.371094 C 2042.359375 1144.511719 2041.089844 1135.488281 2038.449219 1126.320312 C 2037.691406 1123.691406 2037.320312 1121.550781 2037.320312 1119.828125 C 2037.320312 1118.421875 2037.570312 1117.300781 2038.050781 1116.390625 C 2038.761719 1115.039062 2039.988281 1114.109375 2041.871094 1113.410156 C 2043.75 1112.71875 2046.238281 1112.308594 2049.328125 1112.011719 C 2078.308594 1109.179688 2107.71875 1107.308594 2136 1100.75 C 2143.941406 1098.910156 2151.429688 1097.960938 2158.550781 1097.960938 C 2178.03125 1097.960938 2194.78125 1105.039062 2210.480469 1120.558594 C 2237.058594 1146.859375 2264.480469 1172.300781 2291.859375 1197.75 C 2298.21875 1203.660156 2304.058594 1210.050781 2308.308594 1217.03125 C 2312.558594 1224.011719 2315.21875 1231.558594 2315.21875 1239.851562 C 2315.21875 1241.460938 2315.121094 1243.109375 2314.910156 1244.78125 C 2312.320312 1265.328125 2307.070312 1286.429688 2298.378906 1305.121094 C 2283.121094 1337.988281 2251.640625 1355.949219 2223.300781 1376.46875 C 2222.710938 1376.910156 2221.5 1377.171875 2220.160156 1377.171875 C 2219.070312 1377.171875 2217.890625 1377.011719 2216.871094 1376.71875 C 2215.851562 1376.429688 2214.980469 1376 2214.511719 1375.539062 C 2210.640625 1371.75 2207.761719 1368.269531 2205.851562 1364.929688 C 2203.941406 1361.589844 2203.011719 1358.398438 2203.011719 1355.148438 C 2203 1349.171875 2206.199219 1342.839844 2212.730469 1335.039062 C 2217.828125 1328.941406 2224.460938 1323.929688 2230.910156 1319.011719 C 2245 1308.25 2260.058594 1298.621094 2273.609375 1287.128906 C 2287.441406 1275.398438 2294.089844 1260.980469 2294.089844 1245.410156 C 2294.089844 1236.421875 2291.878906 1227.039062 2287.578125 1217.578125 C 2280.96875 1203 2271.261719 1193.78125 2259.710938 1187.671875 C 2248.171875 1181.550781 2234.789062 1178.511719 2220.78125 1176.210938 C 2196.710938 1172.238281 2172.921875 1166.269531 2148.730469 1162.738281 C 2144.460938 1162.121094 2139.941406 1161.730469 2135.421875 1161.730469 C 2128.789062 1161.730469 2122.148438 1162.558594 2116.289062 1164.691406 C 2087.679688 1175.089844 2070.878906 1203.609375 2070.878906 1232.921875 C 2070.878906 1246.078125 2074.269531 1259.410156 2081.5 1271.339844 C 2094.261719 1292.371094 2113.351562 1305.710938 2134.699219 1316.519531 C 2157.359375 1328.011719 2177.328125 1342.839844 2192.300781 1362.671875 L 2192.699219 1362.359375 L 2192.800781 1361.871094 L 2192.699219 1362.359375 "/>
  <path fill-rule="nonzero"  d="M 2312.730469 1441.070312 C 2326.28125 1430.71875 2339.828125 1420.378906 2356.628906 1407.550781 C 2353.011719 1415.941406 2351.820312 1423.558594 2347.398438 1427.789062 C 2340.628906 1434.25 2331.53125 1438.21875 2323.589844 1443.5 C 2308.96875 1453.210938 2292.699219 1461.28125 2280.328125 1473.339844 C 2259.78125 1493.371094 2238.300781 1500.050781 2209.789062 1493.53125 C 2175.890625 1485.769531 2141.03125 1482.160156 2106.589844 1476.761719 C 2105.96875 1478.75 2105.351562 1480.75 2104.738281 1482.75 C 2119.199219 1490.089844 2133.339844 1498.179688 2148.179688 1504.648438 C 2204.738281 1529.289062 2263.148438 1538.78125 2323.988281 1523.488281 C 2350.578125 1516.800781 2374.941406 1505.089844 2393.03125 1483.988281 C 2418.269531 1454.550781 2419.851562 1420.140625 2409.5 1384.71875 C 2396 1338.511719 2366.929688 1302.429688 2332.089844 1270.480469 C 2330.480469 1269 2327.941406 1268.539062 2323.628906 1266.628906 C 2308.660156 1323.480469 2298.941406 1379.328125 2306.738281 1436.898438 C 2308.738281 1438.289062 2310.738281 1439.679688 2312.730469 1441.070312 "/>
  <path fill-rule="nonzero"  d="M 2312.730469 1441.070312 L 2313.039062 1441.46875 C 2326.589844 1431.121094 2340.140625 1420.769531 2356.941406 1407.941406 L 2356.628906 1407.550781 L 2356.179688 1407.351562 C 2354.351562 1411.578125 2353.140625 1415.601562 2351.851562 1419.058594 C 2350.550781 1422.519531 2349.171875 1425.410156 2347.050781 1427.421875 C 2340.378906 1433.800781 2331.308594 1437.78125 2323.308594 1443.078125 C 2308.730469 1452.78125 2292.429688 1460.851562 2279.980469 1472.980469 C 2264.550781 1488.011719 2248.699219 1495.441406 2229.691406 1495.449219 C 2223.46875 1495.449219 2216.898438 1494.648438 2209.898438 1493.039062 C 2175.960938 1485.28125 2141.089844 1481.671875 2106.671875 1476.261719 L 2106.238281 1476.191406 L 2106.109375 1476.609375 C 2105.488281 1478.601562 2104.878906 1480.601562 2104.261719 1482.601562 L 2104.140625 1483 L 2104.511719 1483.191406 C 2118.960938 1490.53125 2133.101562 1498.628906 2147.980469 1505.109375 C 2185.941406 1521.648438 2224.761719 1531.378906 2264.589844 1531.378906 C 2284.179688 1531.378906 2304.019531 1529.019531 2324.109375 1523.96875 C 2350.761719 1517.269531 2375.230469 1505.519531 2393.410156 1484.308594 C 2409.449219 1465.609375 2416 1444.851562 2416 1423.148438 C 2416 1410.550781 2413.789062 1397.628906 2409.980469 1384.578125 C 2396.441406 1338.25 2367.300781 1302.089844 2332.429688 1270.109375 C 2331.539062 1269.300781 2330.441406 1268.800781 2329.050781 1268.25 C 2327.660156 1267.710938 2325.96875 1267.121094 2323.828125 1266.179688 L 2323.289062 1265.941406 L 2323.140625 1266.511719 C 2311.820312 1309.539062 2303.480469 1352.03125 2303.480469 1395.140625 C 2303.480469 1409 2304.339844 1422.929688 2306.25 1436.960938 L 2306.269531 1437.179688 L 2306.460938 1437.308594 C 2308.449219 1438.699219 2310.449219 1440.089844 2312.449219 1441.480469 L 2312.75 1441.691406 L 2313.039062 1441.46875 L 2312.730469 1441.070312 L 2313.019531 1440.660156 C 2311.019531 1439.269531 2309.019531 1437.878906 2307.03125 1436.488281 L 2306.738281 1436.898438 L 2307.238281 1436.828125 C 2305.339844 1422.851562 2304.480469 1408.960938 2304.480469 1395.140625 C 2304.480469 1352.160156 2312.789062 1309.761719 2324.109375 1266.761719 L 2323.628906 1266.628906 L 2323.429688 1267.089844 C 2325.601562 1268.050781 2327.328125 1268.648438 2328.691406 1269.191406 C 2330.050781 1269.71875 2331.03125 1270.179688 2331.75 1270.851562 C 2366.558594 1302.761719 2395.550781 1338.769531 2409.019531 1384.859375 C 2412.808594 1397.839844 2415 1410.671875 2415 1423.148438 C 2414.988281 1444.648438 2408.539062 1465.128906 2392.648438 1483.660156 C 2374.640625 1504.660156 2350.398438 1516.328125 2323.871094 1523 C 2303.851562 1528.03125 2284.101562 1530.378906 2264.589844 1530.378906 C 2224.921875 1530.378906 2186.25 1520.691406 2148.378906 1504.191406 C 2133.570312 1497.738281 2119.441406 1489.648438 2104.960938 1482.300781 L 2104.738281 1482.75 L 2105.210938 1482.890625 C 2105.828125 1480.898438 2106.449219 1478.898438 2107.070312 1476.898438 L 2106.589844 1476.761719 L 2106.511719 1477.25 C 2140.96875 1482.660156 2175.808594 1486.269531 2209.679688 1494.019531 C 2216.738281 1495.628906 2223.378906 1496.449219 2229.691406 1496.449219 C 2248.96875 1496.449219 2265.140625 1488.851562 2280.679688 1473.699219 C 2292.96875 1461.710938 2309.210938 1453.648438 2323.871094 1443.921875 C 2331.761719 1438.671875 2340.878906 1434.691406 2347.738281 1428.148438 C 2350.050781 1425.941406 2351.46875 1422.910156 2352.78125 1419.410156 C 2354.089844 1415.898438 2355.289062 1411.910156 2357.089844 1407.738281 L 2357.851562 1405.988281 L 2356.328125 1407.148438 C 2339.53125 1419.980469 2325.980469 1430.328125 2312.429688 1440.671875 L 2312.730469 1441.070312 L 2313.019531 1440.660156 L 2312.730469 1441.070312 "/>
  <path fill-rule="nonzero"  d="M 2019.648438 1484.628906 C 2029.941406 1481.308594 2040.039062 1477.21875 2050.53125 1474.800781 C 2084.710938 1466.910156 2119.230469 1468.910156 2153.53125 1473.5 C 2177.308594 1476.671875 2200.871094 1481.609375 2224.46875 1486.050781 C 2231.921875 1487.449219 2239.21875 1488.089844 2237.980469 1477.738281 C 2233.648438 1441.691406 2228.121094 1406.019531 2195.910156 1382.03125 C 2178.078125 1368.75 2158.25 1360.621094 2136.171875 1359.421875 C 2084.691406 1356.621094 2041.660156 1337.238281 2005.519531 1297.441406 C 2007.179688 1304.089844 2008.699219 1310.769531 2010.53125 1317.371094 C 2016.910156 1340.441406 2025.050781 1363.171875 2029.449219 1386.609375 C 2035.570312 1419.199219 2032.109375 1451.5 2016.921875 1482.03125 C 2017.828125 1482.898438 2018.738281 1483.769531 2019.648438 1484.628906 "/>
  <path fill-rule="nonzero"  d="M 2019.648438 1484.628906 L 2019.808594 1485.109375 C 2030.109375 1481.78125 2040.199219 1477.691406 2050.640625 1475.28125 C 2067.210938 1471.460938 2083.871094 1469.96875 2100.550781 1469.96875 C 2118.191406 1469.96875 2135.851562 1471.640625 2153.46875 1473.988281 C 2177.21875 1477.160156 2200.769531 1482.101562 2224.371094 1486.539062 C 2226.640625 1486.96875 2228.910156 1487.328125 2230.960938 1487.328125 C 2233.070312 1487.328125 2234.980469 1486.949219 2236.390625 1485.789062 C 2237.808594 1484.621094 2238.621094 1482.710938 2238.609375 1479.898438 C 2238.609375 1479.21875 2238.570312 1478.480469 2238.46875 1477.679688 C 2236.308594 1459.648438 2233.839844 1441.679688 2227.871094 1425.191406 C 2221.898438 1408.699219 2212.398438 1393.679688 2196.210938 1381.628906 C 2178.320312 1368.300781 2158.378906 1360.121094 2136.199219 1358.921875 C 2084.828125 1356.121094 2041.960938 1336.808594 2005.890625 1297.109375 L 2004.550781 1295.640625 L 2005.03125 1297.570312 C 2006.691406 1304.199219 2008.210938 1310.890625 2010.039062 1317.5 C 2016.441406 1340.601562 2024.570312 1363.320312 2028.960938 1386.699219 C 2030.839844 1396.738281 2031.808594 1406.738281 2031.808594 1416.671875 C 2031.808594 1438.898438 2026.941406 1460.769531 2016.480469 1481.808594 L 2016.308594 1482.140625 L 2016.578125 1482.398438 C 2017.488281 1483.261719 2018.398438 1484.128906 2019.308594 1485 L 2019.53125 1485.199219 L 2019.808594 1485.109375 L 2019.648438 1484.628906 L 2020 1484.269531 C 2019.089844 1483.410156 2018.179688 1482.539062 2017.269531 1481.671875 L 2016.921875 1482.03125 L 2017.371094 1482.261719 C 2027.898438 1461.078125 2032.820312 1439.050781 2032.808594 1416.671875 C 2032.808594 1406.671875 2031.839844 1396.609375 2029.941406 1386.519531 C 2025.53125 1363.03125 2017.378906 1340.28125 2011.011719 1317.238281 C 2009.191406 1310.648438 2007.660156 1303.96875 2006 1297.320312 L 2005.519531 1297.441406 L 2005.148438 1297.78125 C 2041.371094 1337.671875 2084.558594 1357.121094 2136.140625 1359.921875 C 2158.109375 1361.109375 2177.851562 1369.199219 2195.609375 1382.429688 C 2211.628906 1394.359375 2221 1409.179688 2226.929688 1425.53125 C 2232.851562 1441.890625 2235.320312 1459.78125 2237.480469 1477.800781 C 2237.570312 1478.570312 2237.609375 1479.269531 2237.609375 1479.898438 C 2237.609375 1482.539062 2236.890625 1484.078125 2235.761719 1485.019531 C 2234.621094 1485.960938 2232.960938 1486.328125 2230.960938 1486.328125 C 2229.03125 1486.328125 2226.808594 1485.980469 2224.558594 1485.558594 C 2200.960938 1481.121094 2177.410156 1476.179688 2153.601562 1473 C 2135.960938 1470.640625 2118.25 1468.96875 2100.550781 1468.96875 C 2083.808594 1468.96875 2067.078125 1470.46875 2050.421875 1474.308594 C 2039.878906 1476.738281 2029.761719 1480.839844 2019.5 1484.160156 L 2019.648438 1484.628906 L 2020 1484.269531 L 2019.648438 1484.628906 "/>
  <path fill-rule="nonzero"  d="M 2557.390625 1752.949219 C 2531.148438 1748.898438 2508.839844 1745.648438 2486.609375 1741.851562 C 2482.539062 1741.148438 2478.550781 1738.648438 2475.019531 1736.25 C 2459.691406 1725.828125 2458.148438 1726.488281 2453.21875 1743.769531 C 2448.351562 1760.820312 2444.410156 1778.410156 2437.121094 1794.421875 C 2424.011719 1823.171875 2397.261719 1837.710938 2370.828125 1851.761719 C 2361.109375 1856.921875 2350.589844 1860.558594 2340.511719 1865.070312 C 2336.921875 1866.671875 2333.539062 1868.78125 2328.25 1871.640625 C 2387.738281 1886.320312 2439.078125 1875.769531 2481.539062 1835.171875 C 2508.390625 1809.5 2532.121094 1780.570312 2557.390625 1752.949219 "/>
  <path fill-rule="nonzero"  d="M 2557.390625 1752.949219 L 2557.46875 1752.460938 C 2531.230469 1748.410156 2508.910156 1745.160156 2486.699219 1741.359375 C 2482.761719 1740.691406 2478.820312 1738.230469 2475.300781 1735.828125 C 2472.039062 1733.621094 2469.398438 1731.898438 2467.191406 1730.71875 C 2464.980469 1729.550781 2463.199219 1728.898438 2461.628906 1728.898438 C 2460.570312 1728.890625 2459.609375 1729.210938 2458.78125 1729.851562 C 2457.539062 1730.800781 2456.578125 1732.398438 2455.648438 1734.671875 C 2454.710938 1736.941406 2453.800781 1739.898438 2452.738281 1743.640625 C 2447.871094 1760.699219 2443.929688 1778.269531 2436.660156 1794.210938 C 2430.148438 1808.5 2420.25 1819.261719 2408.660156 1828.210938 C 2397.078125 1837.160156 2383.808594 1844.289062 2370.601562 1851.308594 C 2360.921875 1856.460938 2350.410156 1860.101562 2340.300781 1864.609375 C 2336.671875 1866.238281 2333.289062 1868.351562 2328.019531 1871.199219 L 2326.878906 1871.808594 L 2328.128906 1872.121094 C 2345.019531 1876.289062 2361.261719 1878.429688 2376.828125 1878.429688 C 2416.230469 1878.441406 2451.371094 1864.710938 2481.878906 1835.53125 C 2508.761719 1809.828125 2532.5 1780.890625 2557.761719 1753.289062 L 2558.390625 1752.601562 L 2557.46875 1752.460938 L 2557.390625 1752.949219 L 2557.019531 1752.621094 C 2531.738281 1780.238281 2508.011719 1809.171875 2481.191406 1834.808594 C 2450.839844 1863.820312 2416 1877.429688 2376.828125 1877.429688 C 2361.351562 1877.429688 2345.191406 1875.300781 2328.371094 1871.148438 L 2328.25 1871.640625 L 2328.488281 1872.078125 C 2333.800781 1869.210938 2337.160156 1867.109375 2340.710938 1865.53125 C 2350.761719 1861.03125 2361.300781 1857.390625 2371.058594 1852.199219 C 2384.28125 1845.179688 2397.601562 1838.019531 2409.269531 1829 C 2420.949219 1819.980469 2430.980469 1809.089844 2437.570312 1794.628906 C 2444.898438 1778.550781 2448.839844 1760.941406 2453.699219 1743.910156 C 2455.109375 1738.949219 2456.25 1735.371094 2457.480469 1733.089844 C 2458.089844 1731.960938 2458.71875 1731.148438 2459.390625 1730.640625 C 2460.058594 1730.128906 2460.761719 1729.898438 2461.628906 1729.898438 C 2462.910156 1729.890625 2464.570312 1730.460938 2466.71875 1731.601562 C 2468.859375 1732.75 2471.488281 1734.449219 2474.738281 1736.660156 C 2478.289062 1739.058594 2482.308594 1741.621094 2486.53125 1742.339844 C 2508.761719 1746.148438 2531.078125 1749.398438 2557.308594 1753.449219 L 2557.390625 1752.949219 L 2557.019531 1752.621094 L 2557.390625 1752.949219 "/>
  <path fill-rule="nonzero"  d="M 1712.859375 1818.25 C 1799.410156 1909.640625 1987.46875 1952.941406 2078.769531 1900.949219 C 1950.769531 1890.128906 1830.941406 1858.148438 1712.859375 1818.25 "/>
  <path fill-rule="nonzero"  d="M 1712.859375 1818.25 L 1712.488281 1818.601562 C 1773.730469 1883.230469 1885.441406 1923.789062 1978.089844 1923.800781 C 2016.71875 1923.789062 2052.039062 1916.738281 2079.011719 1901.378906 L 2080.410156 1900.578125 L 2078.808594 1900.449219 C 1950.871094 1889.640625 1831.078125 1857.671875 1713.019531 1817.78125 L 1711.109375 1817.140625 L 1712.488281 1818.601562 L 1712.859375 1818.25 L 1712.699219 1818.730469 C 1830.800781 1858.628906 1950.671875 1890.628906 2078.71875 1901.449219 L 2078.769531 1900.949219 L 2078.519531 1900.511719 C 2051.761719 1915.75 2016.601562 1922.800781 1978.089844 1922.800781 C 1885.71875 1922.808594 1774.160156 1882.269531 1713.21875 1817.910156 L 1712.859375 1818.25 L 1712.699219 1818.730469 L 1712.859375 1818.25 "/>
  <path fill-rule="nonzero"  d="M 2242.320312 1300.039062 C 2251.851562 1292.191406 2261.710938 1285.289062 2270.121094 1276.921875 C 2294.269531 1252.878906 2285.328125 1207.609375 2253.109375 1195.75 C 2235.75 1189.371094 2216.730469 1187.480469 2198.421875 1183.710938 C 2183.390625 1180.621094 2167.460938 1179.910156 2153.421875 1174.359375 C 2115.179688 1159.261719 2085.558594 1193.101562 2081.550781 1223.78125 C 2079.238281 1241.460938 2081.660156 1249.800781 2091.5 1261.671875 C 2095.148438 1250.148438 2100.230469 1240.710938 2100.808594 1231 C 2102.25 1206.890625 2111.589844 1194.578125 2136.351562 1196.070312 C 2155.519531 1197.21875 2175.320312 1202.101562 2193.03125 1209.589844 C 2211.300781 1217.308594 2222.75 1235.21875 2221.058594 1254.78125 C 2219.351562 1274.53125 2227.148438 1286.738281 2242.320312 1300.039062 "/>
  <path fill-rule="nonzero"  d="M 2242.320312 1300.039062 L 2242.640625 1300.429688 C 2252.148438 1292.589844 2262.019531 1285.679688 2270.46875 1277.28125 C 2279.929688 1267.859375 2284.359375 1255.238281 2284.359375 1242.621094 C 2284.359375 1222.660156 2273.261719 1202.640625 2253.28125 1195.289062 C 2235.839844 1188.871094 2216.789062 1186.988281 2198.519531 1183.21875 C 2183.441406 1180.121094 2167.539062 1179.398438 2153.609375 1173.898438 C 2147.070312 1171.308594 2140.761719 1170.148438 2134.789062 1170.148438 C 2120.160156 1170.148438 2107.550781 1177.140625 2098.199219 1187.320312 C 2088.851562 1197.5 2082.730469 1210.871094 2081.050781 1223.71875 C 2080.519531 1227.78125 2080.238281 1231.371094 2080.238281 1234.621094 C 2080.238281 1240.089844 2081.039062 1244.640625 2082.808594 1248.96875 C 2084.578125 1253.300781 2087.300781 1257.390625 2091.109375 1261.988281 L 2091.699219 1262.699219 L 2091.96875 1261.820312 C 2095.601562 1250.351562 2100.710938 1240.898438 2101.308594 1231.03125 C 2101.980469 1219.679688 2104.429688 1211.03125 2109.328125 1205.25 C 2114.230469 1199.46875 2121.621094 1196.449219 2132.460938 1196.449219 C 2133.699219 1196.449219 2134.988281 1196.488281 2136.320312 1196.570312 C 2155.429688 1197.71875 2175.171875 1202.578125 2192.839844 1210.050781 C 2209.730469 1217.199219 2220.71875 1233.128906 2220.71875 1250.960938 C 2220.71875 1252.210938 2220.671875 1253.46875 2220.558594 1254.738281 C 2220.398438 1256.539062 2220.328125 1258.289062 2220.328125 1259.980469 C 2220.320312 1268.449219 2222.28125 1275.539062 2225.96875 1282.019531 C 2229.660156 1288.488281 2235.070312 1294.351562 2241.988281 1300.421875 L 2242.308594 1300.699219 L 2242.640625 1300.429688 L 2242.320312 1300.039062 L 2242.648438 1299.671875 C 2235.78125 1293.640625 2230.441406 1287.859375 2226.839844 1281.519531 C 2223.230469 1275.179688 2221.328125 1268.289062 2221.328125 1259.980469 C 2221.328125 1258.320312 2221.398438 1256.601562 2221.558594 1254.820312 C 2221.671875 1253.53125 2221.71875 1252.238281 2221.71875 1250.960938 C 2221.71875 1232.710938 2210.46875 1216.421875 2193.230469 1209.128906 C 2175.460938 1201.621094 2155.621094 1196.730469 2136.378906 1195.570312 C 2135.03125 1195.488281 2133.730469 1195.449219 2132.460938 1195.449219 C 2121.449219 1195.441406 2113.691406 1198.550781 2108.570312 1204.601562 C 2103.449219 1210.640625 2100.988281 1219.519531 2100.308594 1230.96875 C 2099.75 1240.519531 2094.699219 1249.941406 2091.019531 1261.519531 L 2091.5 1261.671875 L 2091.878906 1261.351562 C 2088.109375 1256.800781 2085.449219 1252.789062 2083.738281 1248.589844 C 2082.019531 1244.390625 2081.238281 1240 2081.238281 1234.621094 C 2081.238281 1231.421875 2081.519531 1227.878906 2082.039062 1223.851562 C 2083.691406 1211.21875 2089.730469 1198.011719 2098.941406 1188 C 2108.148438 1177.980469 2120.488281 1171.148438 2134.789062 1171.148438 C 2140.628906 1171.148438 2146.808594 1172.289062 2153.238281 1174.828125 C 2167.390625 1180.410156 2183.339844 1181.121094 2198.320312 1184.199219 C 2216.660156 1187.980469 2235.660156 1189.871094 2252.929688 1196.21875 C 2272.449219 1203.398438 2283.359375 1223.011719 2283.359375 1242.621094 C 2283.359375 1255.011719 2279.011719 1267.359375 2269.761719 1276.570312 C 2261.398438 1284.890625 2251.558594 1291.789062 2242 1299.660156 L 2242.320312 1300.039062 L 2242.648438 1299.671875 L 2242.320312 1300.039062 "/>
  <path fill-rule="nonzero"  d="M 2021.398438 1182.96875 C 2000.871094 1199.609375 1975.980469 1210.550781 1962.289062 1235.898438 C 1947.851562 1262.628906 1942.21875 1290.320312 1955.421875 1317.230469 C 1973.691406 1354.511719 1996 1389.820312 2016.660156 1425.929688 C 2016.980469 1426.488281 2018.378906 1426.441406 2023.378906 1427.769531 C 2021.609375 1409.570312 2021.289062 1392.609375 2018 1376.238281 C 2014.429688 1358.449219 2009.578125 1340.609375 2002.710938 1323.859375 C 1985.730469 1282.5 1997.210938 1245.03125 2015.550781 1207.929688 C 2019.21875 1200.511719 2022.121094 1192.710938 2025.371094 1185.089844 C 2024.050781 1184.378906 2022.730469 1183.671875 2021.398438 1182.96875 "/>
  <path fill-rule="nonzero"  d="M 2021.398438 1182.96875 L 2021.089844 1182.578125 C 2010.859375 1190.871094 1999.511719 1197.761719 1988.980469 1205.769531 C 1978.449219 1213.769531 1968.738281 1222.898438 1961.851562 1235.660156 C 1953.03125 1251.980469 1947.46875 1268.691406 1947.46875 1285.398438 C 1947.46875 1296.128906 1949.769531 1306.851562 1954.96875 1317.449219 C 1973.261719 1354.761719 1995.570312 1390.078125 2016.230469 1426.179688 C 2016.308594 1426.320312 2016.421875 1426.441406 2016.550781 1426.53125 C 2017 1426.820312 2017.539062 1426.910156 2018.570312 1427.140625 C 2019.589844 1427.359375 2021.078125 1427.671875 2023.25 1428.25 L 2023.949219 1428.429688 L 2023.878906 1427.71875 C 2022.109375 1409.550781 2021.789062 1392.570312 2018.488281 1376.140625 C 2014.921875 1358.328125 2010.058594 1340.460938 2003.171875 1323.671875 C 1997.371094 1309.539062 1994.910156 1295.878906 1994.910156 1282.53125 C 1994.910156 1256.960938 2003.960938 1232.5 2016 1208.148438 C 2019.691406 1200.699219 2022.589844 1192.890625 2025.828125 1185.28125 L 2026.011719 1184.859375 L 2025.609375 1184.648438 C 2024.289062 1183.941406 2022.960938 1183.230469 2021.640625 1182.53125 L 2021.351562 1182.371094 L 2021.089844 1182.578125 L 2021.398438 1182.96875 L 2021.171875 1183.410156 C 2022.488281 1184.109375 2023.808594 1184.820312 2025.140625 1185.53125 L 2025.371094 1185.089844 L 2024.910156 1184.890625 C 2021.648438 1192.53125 2018.761719 1200.320312 2015.109375 1207.710938 C 2003.039062 1232.109375 1993.910156 1256.71875 1993.910156 1282.53125 C 1993.910156 1296.011719 1996.398438 1309.800781 2002.25 1324.050781 C 2009.109375 1340.761719 2013.949219 1358.570312 2017.511719 1376.339844 C 2020.78125 1392.648438 2021.109375 1409.589844 2022.878906 1427.808594 L 2023.378906 1427.769531 L 2023.511719 1427.28125 C 2021 1426.621094 2019.378906 1426.300781 2018.371094 1426.078125 C 2017.871094 1425.96875 2017.519531 1425.878906 2017.320312 1425.800781 C 2017.21875 1425.761719 2017.148438 1425.730469 2017.121094 1425.710938 L 2017.101562 1425.679688 C 1996.421875 1389.558594 1974.121094 1354.261719 1955.859375 1317.011719 C 1950.738281 1306.550781 1948.46875 1295.980469 1948.46875 1285.398438 C 1948.46875 1268.910156 1953.960938 1252.359375 1962.730469 1236.140625 C 1969.53125 1223.550781 1979.109375 1214.53125 1989.589844 1206.558594 C 2000.058594 1198.601562 2011.421875 1191.699219 2021.71875 1183.359375 L 2021.398438 1182.96875 L 2021.171875 1183.410156 L 2021.398438 1182.96875 "/>
  <path fill-rule="nonzero"  d="M 2299.070312 1329.621094 C 2275.609375 1348.179688 2252.691406 1365.871094 2230.46875 1384.398438 C 2227.390625 1386.960938 2225.839844 1394.128906 2226.859375 1398.378906 C 2232.988281 1423.851562 2240.03125 1449.109375 2246.929688 1474.390625 C 2247.628906 1476.988281 2249.410156 1479.289062 2252.421875 1485.03125 C 2267.738281 1470.839844 2283.109375 1458.761719 2295.359375 1444.070312 C 2299.390625 1439.230469 2294.839844 1427.648438 2295.089844 1419.171875 C 2295.878906 1393.359375 2297.078125 1367.570312 2298.171875 1341.769531 C 2298.339844 1337.679688 2298.761719 1333.609375 2299.070312 1329.621094 "/>
  <path fill-rule="nonzero"  d="M 2299.070312 1329.621094 L 2298.761719 1329.230469 C 2275.308594 1347.78125 2252.378906 1365.480469 2230.148438 1384.011719 C 2228.820312 1385.128906 2227.820312 1386.941406 2227.121094 1388.988281 C 2226.429688 1391.039062 2226.050781 1393.328125 2226.050781 1395.429688 C 2226.050781 1396.519531 2226.148438 1397.558594 2226.371094 1398.488281 C 2232.511719 1423.980469 2239.550781 1449.238281 2246.441406 1474.519531 C 2246.820312 1475.890625 2247.460938 1477.148438 2248.371094 1478.78125 C 2249.289062 1480.398438 2250.480469 1482.398438 2251.980469 1485.261719 L 2252.28125 1485.839844 L 2252.761719 1485.390625 C 2268.058594 1471.230469 2283.449219 1459.128906 2295.738281 1444.390625 C 2297.109375 1442.738281 2297.53125 1440.480469 2297.53125 1437.929688 C 2297.53125 1435.191406 2297.039062 1432.101562 2296.550781 1428.96875 C 2296.058594 1425.851562 2295.578125 1422.691406 2295.578125 1419.890625 C 2295.578125 1419.648438 2295.589844 1419.421875 2295.589844 1419.191406 C 2296.378906 1393.378906 2297.578125 1367.589844 2298.671875 1341.789062 C 2298.839844 1337.730469 2299.261719 1333.660156 2299.570312 1329.660156 L 2299.648438 1328.519531 L 2298.761719 1329.230469 L 2299.070312 1329.621094 L 2298.570312 1329.589844 C 2298.269531 1333.570312 2297.839844 1337.640625 2297.671875 1341.738281 C 2296.578125 1367.539062 2295.378906 1393.339844 2294.589844 1419.160156 C 2294.589844 1419.398438 2294.578125 1419.640625 2294.578125 1419.890625 C 2294.578125 1422.808594 2295.078125 1426 2295.558594 1429.128906 C 2296.050781 1432.25 2296.53125 1435.308594 2296.53125 1437.929688 C 2296.53125 1440.378906 2296.109375 1442.398438 2294.96875 1443.75 C 2282.769531 1458.378906 2267.421875 1470.460938 2252.078125 1484.660156 L 2252.421875 1485.03125 L 2252.859375 1484.789062 C 2251.351562 1481.921875 2250.148438 1479.898438 2249.25 1478.289062 C 2248.339844 1476.679688 2247.738281 1475.488281 2247.410156 1474.261719 C 2240.511719 1448.96875 2233.46875 1423.71875 2227.351562 1398.261719 C 2227.148438 1397.429688 2227.050781 1396.460938 2227.050781 1395.429688 C 2227.050781 1393.449219 2227.410156 1391.25 2228.070312 1389.308594 C 2228.71875 1387.371094 2229.679688 1385.699219 2230.789062 1384.78125 C 2253 1366.261719 2275.921875 1348.570312 2299.378906 1330.019531 L 2299.070312 1329.621094 L 2298.570312 1329.589844 L 2299.070312 1329.621094 "/>
  <path fill-rule="nonzero"  d="M 2240.601562 2042.691406 C 2272.179688 2046.460938 2302.460938 2041.648438 2327.011719 2023.289062 C 2360.460938 1998.28125 2397.921875 1983.730469 2436.710938 1970.789062 C 2456.679688 1964.121094 2475.910156 1955.5 2490.378906 1935.191406 C 2449.28125 1937.75 2410.269531 1939.25 2375.859375 1960.851562 C 2352.71875 1975.378906 2330.640625 1991.578125 2307.441406 2005.980469 C 2288.789062 2017.550781 2269.179688 2027.558594 2249.960938 2038.199219 C 2246.941406 2039.871094 2243.71875 2041.199219 2240.601562 2042.691406 "/>
  <path fill-rule="nonzero"  d="M 2240.601562 2042.691406 L 2240.539062 2043.179688 C 2247.101562 2043.96875 2253.609375 2044.378906 2260.03125 2044.378906 C 2284.558594 2044.378906 2307.75 2038.320312 2327.308594 2023.691406 C 2360.691406 1998.730469 2398.089844 1984.199219 2436.871094 1971.261719 C 2456.871094 1964.589844 2476.230469 1955.910156 2490.78125 1935.480469 L 2491.390625 1934.628906 L 2490.339844 1934.699219 C 2449.261719 1937.261719 2410.148438 1938.738281 2375.589844 1960.429688 C 2352.441406 1974.96875 2330.359375 1991.171875 2307.179688 2005.550781 C 2288.550781 2017.109375 2268.949219 2027.121094 2249.71875 2037.761719 C 2246.730469 2039.421875 2243.53125 2040.738281 2240.378906 2042.230469 L 2238.820312 2042.980469 L 2240.539062 2043.179688 L 2240.601562 2042.691406 L 2240.808594 2043.140625 C 2243.921875 2041.660156 2247.148438 2040.328125 2250.210938 2038.640625 C 2269.421875 2028 2289.03125 2017.988281 2307.699219 2006.398438 C 2330.929688 1991.988281 2353.011719 1975.789062 2376.121094 1961.28125 C 2410.390625 1939.761719 2449.289062 1938.25 2490.410156 1935.691406 L 2490.378906 1935.191406 L 2489.96875 1934.898438 C 2475.589844 1955.078125 2456.5 1963.648438 2436.550781 1970.308594 C 2397.738281 1983.261719 2360.230469 1997.828125 2326.710938 2022.890625 C 2307.351562 2037.359375 2284.410156 2043.378906 2260.03125 2043.378906 C 2253.660156 2043.378906 2247.191406 2042.96875 2240.660156 2042.191406 L 2240.601562 2042.691406 L 2240.808594 2043.140625 L 2240.601562 2042.691406 "/>
  <path fill-rule="nonzero"  d="M 2001.851562 1486.410156 C 2014.570312 1473.660156 2016.179688 1458.011719 2011.53125 1441.710938 C 2009.089844 1433.140625 2004.148438 1425.160156 1999.578125 1417.351562 C 1985.78125 1393.800781 1971.640625 1370.441406 1957.539062 1347.058594 C 1956.121094 1344.699219 1954.140625 1342.671875 1952.039062 1340.011719 C 1943.171875 1355.378906 1934.421875 1369.871094 1926.539062 1384.820312 C 1925.230469 1387.300781 1926.648438 1392.621094 1928.648438 1395.21875 C 1951.648438 1425.269531 1975 1455.050781 1998.308594 1484.851562 C 1998.820312 1485.5 2000 1485.621094 2001.851562 1486.410156 "/>
  <path fill-rule="nonzero"  d="M 2001.851562 1486.410156 L 2002.210938 1486.761719 C 2010.828125 1478.128906 2014.421875 1468.109375 2014.410156 1457.519531 C 2014.410156 1452.320312 2013.550781 1446.96875 2012.011719 1441.570312 C 2009.539062 1432.910156 2004.578125 1424.898438 2000.011719 1417.101562 C 1986.210938 1393.539062 1972.058594 1370.179688 1957.96875 1346.800781 C 1956.5 1344.371094 1954.511719 1342.339844 1952.441406 1339.699219 L 1951.980469 1339.121094 L 1951.609375 1339.761719 C 1942.738281 1355.121094 1933.980469 1369.621094 1926.101562 1384.578125 C 1925.691406 1385.359375 1925.53125 1386.300781 1925.53125 1387.308594 C 1925.539062 1390.089844 1926.710938 1393.488281 1928.25 1395.53125 C 1951.261719 1425.570312 1974.609375 1455.351562 1997.921875 1485.160156 C 1998.289062 1485.628906 1998.808594 1485.828125 1999.410156 1486.050781 C 2000.019531 1486.269531 2000.761719 1486.488281 2001.660156 1486.871094 L 2001.96875 1487 L 2002.210938 1486.761719 L 2001.851562 1486.410156 L 2002.050781 1485.949219 C 2001.101562 1485.539062 2000.320312 1485.308594 1999.75 1485.109375 C 1999.171875 1484.910156 1998.839844 1484.730469 1998.710938 1484.539062 C 1975.390625 1454.738281 1952.039062 1424.960938 1929.039062 1394.921875 C 1927.671875 1393.128906 1926.519531 1389.808594 1926.53125 1387.308594 C 1926.53125 1386.398438 1926.679688 1385.609375 1926.980469 1385.050781 C 1934.851562 1370.121094 1943.601562 1355.628906 1952.480469 1340.261719 L 1952.039062 1340.011719 L 1951.648438 1340.320312 C 1953.769531 1343.011719 1955.738281 1345.019531 1957.109375 1347.320312 C 1971.210938 1370.699219 1985.351562 1394.050781 1999.148438 1417.609375 C 2003.730469 1425.410156 2008.640625 1433.371094 2011.050781 1441.851562 C 2012.570312 1447.179688 2013.410156 1452.429688 2013.410156 1457.519531 C 2013.410156 1467.890625 2009.929688 1477.589844 2001.5 1486.050781 L 2001.851562 1486.410156 L 2002.050781 1485.949219 L 2001.851562 1486.410156 "/>
  <path fill-rule="nonzero"  d="M 2167.410156 1206.019531 C 2153.199219 1206.421875 2138.871094 1205.878906 2124.820312 1207.589844 C 2116.648438 1208.578125 2107.300781 1214.339844 2111.460938 1223.960938 C 2115 1232.148438 2123.671875 1238.230469 2130.589844 1244.671875 C 2131.261719 1245.289062 2136.078125 1242.351562 2138.261719 1240.300781 C 2153.71875 1225.699219 2163.671875 1226.660156 2175.089844 1244.949219 C 2178.570312 1250.53125 2179.789062 1257.480469 2182.828125 1263.390625 C 2184.761719 1267.160156 2187.488281 1271.960938 2190.980469 1273.230469 C 2207.621094 1279.289062 2214.148438 1273.808594 2212.871094 1255.960938 C 2211.179688 1232.230469 2195.519531 1215.910156 2167.410156 1206.019531 "/>
  <path fill-rule="nonzero"  d="M 2167.410156 1206.019531 L 2167.390625 1205.519531 C 2153.199219 1205.921875 2138.859375 1205.378906 2124.761719 1207.089844 C 2121.289062 1207.519531 2117.628906 1208.769531 2114.789062 1210.820312 C 2111.960938 1212.871094 2109.941406 1215.769531 2109.941406 1219.410156 C 2109.941406 1220.890625 2110.269531 1222.480469 2111 1224.160156 C 2114.640625 1232.53125 2123.371094 1238.621094 2130.25 1245.03125 C 2130.460938 1245.21875 2130.691406 1245.25 2130.878906 1245.25 C 2131.351562 1245.238281 2131.859375 1245.050781 2132.488281 1244.769531 C 2134.351562 1243.921875 2137.058594 1242.109375 2138.601562 1240.660156 C 2142.121094 1237.339844 2145.339844 1234.851562 2148.328125 1233.191406 C 2151.320312 1231.53125 2154.070312 1230.699219 2156.679688 1230.699219 C 2159.78125 1230.710938 2162.699219 1231.851562 2165.660156 1234.238281 C 2168.621094 1236.640625 2171.589844 1240.28125 2174.671875 1245.21875 C 2178.089844 1250.679688 2179.308594 1257.609375 2182.390625 1263.621094 C 2183.359375 1265.511719 2184.53125 1267.671875 2185.921875 1269.539062 C 2187.308594 1271.410156 2188.921875 1273 2190.808594 1273.699219 C 2195.179688 1275.289062 2198.871094 1276.101562 2201.960938 1276.101562 C 2203.910156 1276.101562 2205.628906 1275.769531 2207.101562 1275.089844 C 2209.308594 1274.078125 2210.949219 1272.269531 2211.988281 1269.75 C 2213.039062 1267.230469 2213.53125 1264 2213.53125 1260.039062 C 2213.53125 1258.738281 2213.46875 1257.378906 2213.371094 1255.929688 C 2212.519531 1243.960938 2208.128906 1233.820312 2200.421875 1225.460938 C 2192.699219 1217.101562 2181.679688 1210.511719 2167.570312 1205.539062 L 2167.480469 1205.511719 L 2167.390625 1205.519531 L 2167.410156 1206.019531 L 2167.238281 1206.488281 C 2181.25 1211.421875 2192.121094 1217.941406 2199.679688 1226.140625 C 2207.25 1234.339844 2211.53125 1244.230469 2212.378906 1256 C 2212.480469 1257.429688 2212.53125 1258.769531 2212.53125 1260.039062 C 2212.53125 1265.210938 2211.660156 1269.011719 2209.929688 1271.449219 C 2209.070312 1272.679688 2208 1273.578125 2206.679688 1274.191406 C 2205.371094 1274.789062 2203.800781 1275.101562 2201.960938 1275.101562 C 2199.039062 1275.101562 2195.449219 1274.320312 2191.160156 1272.761719 C 2189.558594 1272.179688 2188.050781 1270.738281 2186.71875 1268.949219 C 2185.390625 1267.160156 2184.238281 1265.039062 2183.269531 1263.160156 C 2180.269531 1257.339844 2179.058594 1250.378906 2175.519531 1244.691406 C 2172.398438 1239.699219 2169.378906 1235.96875 2166.289062 1233.46875 C 2163.210938 1230.96875 2160.03125 1229.699219 2156.679688 1229.699219 C 2153.859375 1229.699219 2150.929688 1230.589844 2147.839844 1232.308594 C 2144.738281 1234.03125 2141.46875 1236.578125 2137.910156 1239.941406 C 2136.96875 1240.828125 2135.449219 1241.929688 2134.039062 1242.800781 C 2133.328125 1243.230469 2132.648438 1243.601562 2132.070312 1243.859375 C 2131.511719 1244.128906 2131.03125 1244.261719 2130.878906 1244.25 L 2130.851562 1244.25 L 2130.800781 1244.449219 L 2130.929688 1244.300781 L 2130.851562 1244.25 L 2130.800781 1244.449219 L 2130.929688 1244.300781 C 2123.96875 1237.828125 2115.371094 1231.769531 2111.921875 1223.769531 C 2111.238281 1222.191406 2110.941406 1220.738281 2110.941406 1219.410156 C 2110.941406 1216.160156 2112.71875 1213.570312 2115.378906 1211.628906 C 2118.039062 1209.699219 2121.570312 1208.488281 2124.878906 1208.089844 C 2138.878906 1206.378906 2153.191406 1206.921875 2167.421875 1206.519531 L 2167.410156 1206.019531 L 2167.238281 1206.488281 L 2167.410156 1206.019531 "/>
  <path fill-rule="nonzero"  d="M 2136.308594 1304.320312 C 2139.828125 1306.859375 2143.378906 1309.371094 2146.871094 1311.949219 C 2159.949219 1321.601562 2172.78125 1331.628906 2186.308594 1340.609375 C 2188.800781 1342.269531 2195.410156 1341.121094 2197.878906 1338.839844 C 2206.558594 1330.800781 2214.238281 1321.671875 2222.371094 1313.019531 C 2229.089844 1305.859375 2230.648438 1298.921875 2221.558594 1292.519531 C 2204.539062 1280.539062 2168.730469 1279.980469 2151.371094 1291.570312 C 2147.878906 1293.910156 2145.050781 1297.230469 2141.910156 1300.101562 C 2140.039062 1301.511719 2138.179688 1302.910156 2136.308594 1304.320312 "/>
  <path fill-rule="nonzero"  d="M 2136.308594 1304.320312 L 2136.019531 1304.730469 C 2139.539062 1307.269531 2143.089844 1309.78125 2146.578125 1312.351562 C 2159.648438 1322 2172.480469 1332.039062 2186.03125 1341.03125 C 2186.988281 1341.660156 2188.320312 1341.890625 2189.78125 1341.898438 C 2191.289062 1341.898438 2192.941406 1341.628906 2194.441406 1341.171875 C 2195.941406 1340.699219 2197.289062 1340.050781 2198.21875 1339.199219 C 2206.929688 1331.140625 2214.609375 1322 2222.730469 1313.371094 C 2226.210938 1309.660156 2228.390625 1305.960938 2228.398438 1302.238281 C 2228.398438 1300.46875 2227.890625 1298.71875 2226.808594 1297.03125 C 2225.738281 1295.328125 2224.101562 1293.699219 2221.851562 1292.109375 C 2212.929688 1285.839844 2199.070312 1282.699219 2185.328125 1282.699219 C 2172.429688 1282.699219 2159.628906 1285.460938 2151.089844 1291.160156 C 2147.519531 1293.539062 2144.679688 1296.890625 2141.570312 1299.730469 L 2141.910156 1300.101562 L 2141.609375 1299.699219 C 2139.738281 1301.109375 2137.878906 1302.511719 2136.011719 1303.921875 L 2135.46875 1304.328125 L 2136.019531 1304.730469 L 2136.308594 1304.320312 L 2136.609375 1304.71875 C 2138.480469 1303.308594 2140.339844 1301.910156 2142.210938 1300.5 L 2142.230469 1300.480469 L 2142.25 1300.46875 C 2145.410156 1297.570312 2148.230469 1294.269531 2151.648438 1291.988281 C 2159.921875 1286.460938 2172.570312 1283.691406 2185.328125 1283.699219 C 2198.921875 1283.691406 2212.628906 1286.828125 2221.269531 1292.921875 C 2223.449219 1294.460938 2224.988281 1296.011719 2225.96875 1297.558594 C 2226.960938 1299.121094 2227.398438 1300.660156 2227.398438 1302.238281 C 2227.410156 1305.539062 2225.410156 1309.058594 2222 1312.679688 C 2213.859375 1321.339844 2206.191406 1330.460938 2197.539062 1338.46875 C 2196.800781 1339.160156 2195.550781 1339.78125 2194.140625 1340.210938 C 2192.738281 1340.648438 2191.171875 1340.898438 2189.78125 1340.898438 C 2188.429688 1340.898438 2187.25 1340.648438 2186.578125 1340.199219 C 2173.078125 1331.230469 2160.261719 1321.199219 2147.171875 1311.550781 C 2143.671875 1308.960938 2140.121094 1306.449219 2136.601562 1303.921875 L 2136.308594 1304.320312 L 2136.609375 1304.71875 L 2136.308594 1304.320312 "/>
  <path fill-rule="nonzero"  d="M 2129.378906 1302.371094 C 2148.921875 1274.410156 2146.539062 1264.949219 2118.390625 1249.25 C 2111.699219 1245.519531 2108.449219 1246.851562 2104.929688 1253.449219 C 2096.429688 1269.390625 2098.039062 1280.25 2112.148438 1291.148438 C 2117.339844 1295.160156 2123.160156 1298.359375 2129.378906 1302.371094 "/>
  <path fill-rule="nonzero"  d="M 2129.378906 1302.371094 L 2129.789062 1302.648438 C 2138.191406 1290.621094 2142.609375 1281.96875 2142.621094 1274.621094 C 2142.628906 1269.738281 2140.621094 1265.480469 2136.640625 1261.390625 C 2132.648438 1257.289062 2126.679688 1253.308594 2118.640625 1248.820312 C 2116.148438 1247.429688 2114.089844 1246.699219 2112.25 1246.699219 C 2110.648438 1246.691406 2109.230469 1247.269531 2107.980469 1248.378906 C 2106.730469 1249.488281 2105.621094 1251.101562 2104.488281 1253.21875 C 2101.050781 1259.660156 2099.230469 1265.308594 2099.230469 1270.519531 C 2099.230469 1274.410156 2100.25 1278.03125 2102.339844 1281.488281 C 2104.429688 1284.960938 2107.578125 1288.261719 2111.839844 1291.550781 C 2117.070312 1295.589844 2122.910156 1298.789062 2129.109375 1302.789062 L 2129.519531 1303.050781 L 2129.789062 1302.648438 L 2129.378906 1302.371094 L 2129.648438 1301.949219 C 2123.410156 1297.921875 2117.601562 1294.730469 2112.449219 1290.761719 C 2108.261719 1287.519531 2105.199219 1284.300781 2103.199219 1280.980469 C 2101.199219 1277.648438 2100.230469 1274.230469 2100.230469 1270.519531 C 2100.230469 1265.550781 2101.980469 1260.050781 2105.371094 1253.691406 C 2106.46875 1251.621094 2107.539062 1250.109375 2108.648438 1249.128906 C 2109.761719 1248.160156 2110.878906 1247.699219 2112.25 1247.699219 C 2113.820312 1247.699219 2115.738281 1248.339844 2118.148438 1249.691406 C 2126.160156 1254.160156 2132.058594 1258.109375 2135.921875 1262.089844 C 2139.78125 1266.070312 2141.621094 1270.019531 2141.621094 1274.621094 C 2141.628906 1281.550781 2137.351562 1290.101562 2128.96875 1302.078125 L 2129.378906 1302.371094 L 2129.648438 1301.949219 L 2129.378906 1302.371094 "/>
  <path fill-rule="nonzero"  d="M 2140.128906 1248.738281 C 2147.089844 1259.691406 2151.96875 1268.519531 2158.390625 1276.039062 C 2159.230469 1277.03125 2167.949219 1271.300781 2173.019531 1268.691406 C 2168.101562 1259.53125 2163.648438 1250.03125 2157.671875 1241.628906 C 2156.941406 1240.621094 2147.949219 1245.488281 2140.128906 1248.738281 "/>
  <path fill-rule="nonzero"  d="M 2140.128906 1248.738281 L 2139.699219 1249.011719 C 2146.660156 1259.941406 2151.539062 1268.789062 2158.011719 1276.371094 C 2158.109375 1276.488281 2158.238281 1276.558594 2158.359375 1276.601562 C 2158.488281 1276.640625 2158.609375 1276.660156 2158.71875 1276.660156 C 2159.058594 1276.648438 2159.421875 1276.558594 2159.839844 1276.398438 C 2161.320312 1275.871094 2163.621094 1274.589844 2166.109375 1273.160156 C 2168.589844 1271.738281 2171.21875 1270.179688 2173.25 1269.128906 L 2173.699219 1268.898438 L 2173.460938 1268.449219 C 2168.550781 1259.308594 2164.089844 1249.789062 2158.070312 1241.339844 C 2157.96875 1241.191406 2157.808594 1241.101562 2157.679688 1241.050781 C 2157.539062 1241.011719 2157.398438 1240.988281 2157.269531 1240.988281 C 2156.929688 1240.988281 2156.570312 1241.070312 2156.121094 1241.199219 C 2154.570312 1241.660156 2152.101562 1242.78125 2149.210938 1244.109375 C 2146.320312 1245.449219 2143.03125 1247 2139.929688 1248.28125 L 2139.390625 1248.511719 L 2139.699219 1249.011719 L 2140.128906 1248.738281 L 2140.320312 1249.210938 C 2143.890625 1247.71875 2147.691406 1245.910156 2150.828125 1244.460938 C 2152.410156 1243.738281 2153.820312 1243.121094 2154.941406 1242.679688 C 2155.511719 1242.449219 2156 1242.28125 2156.398438 1242.160156 C 2156.800781 1242.050781 2157.109375 1241.988281 2157.269531 1241.988281 L 2157.339844 1242 L 2157.359375 1242 L 2157.390625 1241.890625 L 2157.328125 1241.988281 L 2157.359375 1242 L 2157.390625 1241.890625 L 2157.328125 1241.988281 L 2157.460938 1241.78125 L 2157.261719 1241.921875 L 2157.328125 1241.988281 L 2157.460938 1241.78125 L 2157.261719 1241.921875 C 2163.210938 1250.269531 2167.648438 1259.75 2172.578125 1268.921875 L 2173.019531 1268.691406 L 2172.789062 1268.238281 C 2170.429688 1269.460938 2167.308594 1271.328125 2164.558594 1272.890625 C 2163.191406 1273.671875 2161.898438 1274.378906 2160.859375 1274.878906 C 2160.339844 1275.128906 2159.878906 1275.328125 2159.511719 1275.460938 C 2159.140625 1275.601562 2158.839844 1275.660156 2158.71875 1275.660156 L 2158.679688 1275.648438 L 2158.671875 1275.648438 L 2158.621094 1275.839844 L 2158.769531 1275.71875 L 2158.671875 1275.648438 L 2158.621094 1275.839844 L 2158.769531 1275.71875 C 2152.390625 1268.25 2147.519531 1259.441406 2140.550781 1248.480469 L 2140.128906 1248.738281 L 2140.320312 1249.210938 L 2140.128906 1248.738281 "/>
  <path fill-rule="nonzero"  d="M 2000.171875 3068.230469 C 1995.710938 3075.738281 1990.511719 3082.808594 1984.511719 3089.289062 C 1960.71875 2986.941406 1936.839844 2884 1930.738281 2779.101562 C 1929.058594 2750.230469 1928.589844 2720.578125 1917.910156 2693.710938 C 1907.21875 2666.828125 1883.46875 2642.839844 1854.570312 2641.570312 C 1875.378906 2644.878906 1895.988281 2630.320312 1905.300781 2611.421875 C 1914.609375 2592.519531 1914.660156 2570.390625 1911.929688 2549.511719 C 1905.109375 2497.21875 1881.71875 2447.230469 1845.960938 2408.480469 C 1841.621094 2403.78125 1836.839844 2399.070312 1830.71875 2397.199219 C 1823.539062 2395.019531 1815.871094 2397.109375 1808.5 2398.46875 C 1763.148438 2406.839844 1713.699219 2384.199219 1690.410156 2344.398438 C 1669.871094 2309.308594 1669.710938 2266.519531 1666.179688 2226.019531 C 1662.648438 2185.511719 1652.949219 2141.480469 1620.691406 2116.730469 C 1707.609375 2109.789062 1796.859375 2150.828125 1848.160156 2221.339844 C 1882.898438 2269.078125 1897.71875 2341.378906 1856.929688 2384.058594 C 1872.359375 2406.878906 1887.789062 2429.710938 1903.230469 2452.53125 C 1915.160156 2311.300781 1925.929688 2169.96875 1935.519531 2028.558594 C 1937.21875 2003.5 1938.46875 1976.621094 1925.429688 1955.140625 C 1909.421875 1928.75 1877.039062 1918.441406 1847.96875 1908.039062 C 1793.050781 1888.398438 1740.800781 1861.351562 1692.921875 1828.039062 C 1654.769531 1801.5 1582.570312 1754.761719 1566.589844 1710.109375 C 1608.761719 1710.441406 1645.351562 1754.371094 1674.449219 1780.160156 C 1737.429688 1835.96875 1816.378906 1873.558594 1899.410156 1887.261719 C 1942.410156 1894.359375 1986.371094 1895.199219 2028.988281 1904.339844 C 2043.558594 1907.46875 2059.398438 1912.660156 2066.75 1925.628906 C 2076.078125 1942.101562 2067.460938 1962.558594 2058.851562 1979.421875 C 2038.078125 2020.078125 2017.308594 2060.738281 1996.539062 2101.398438 C 1988.589844 2116.960938 1980.398438 2133.941406 1983.351562 2151.171875 C 1986.300781 2168.398438 2006.230469 2183.378906 2021.371094 2174.628906 C 1992.71875 2180.871094 1971.378906 2206.339844 1961.859375 2234.070312 C 1952.351562 2261.789062 1952.628906 2291.789062 1953.140625 2321.101562 C 1956.25 2498.910156 1964.378906 2677.71875 2002.5 2851.429688 C 2011.378906 2891.941406 2021.949219 2932.519531 2022.570312 2973.988281 C 2023.058594 3006.628906 2016.671875 3040.46875 2000.171875 3068.230469 "/>
</svg>